<svg xmlns="http://www.w3.org/2000/svg" id="Layer_1" data-name="Layer 1" viewBox="0 0 1281.94 787.56"><g id="_Group_name_khoi-đau_" data-name="&lt;Group name=&quot;khoi-đau&quot;&gt;"><path fill="#fff" stroke="#000" stroke-miterlimit="10" stroke-width="1.5" d="M551.85 146.32h194.4v58.32h-194.4z"/><text font-family="TimesNewRomanPSMT,Times New Roman" font-size="36" transform="translate(584.61 187.36)">Khởi đầu</text><path fill="#fff" stroke="#000" stroke-miterlimit="10" stroke-width="2" d="M650.77 146.33c1.08 0-20.95-54.93 1.86-76.66 29.72-28.31 1.68-69.1 1.68-69.1"/></g><g id="_Group_name_cac-phan-mem-can-thiet_" data-name="&lt;Group name=&quot;cac-phan-mem-can-thiet&quot;&gt;"><path fill="#fff" stroke="#000" stroke-miterlimit="10" stroke-width="1.5" d="M819.19 146.32h141.48v59.4H819.19z"/><path d="M1107.41 200.22l.27 4.05h-.27a5.14 5.14 0 00-1.56-2.61 3.74 3.74 0 00-2.43-.8 4 4 0 00-2.14.6 4 4 0 00-1.51 1.92 8.67 8.67 0 00-.55 3.28 7.07 7.07 0 00.52 2.8 3.93 3.93 0 001.56 1.82 4.53 4.53 0 002.38.63 4.14 4.14 0 002-.49 6.87 6.87 0 002-2l.27.18a6.24 6.24 0 01-2.09 2.33 5.32 5.32 0 01-2.84.74 5.4 5.4 0 01-4.59-2.2 6.27 6.27 0 01-1.21-3.85 6.89 6.89 0 01.8-3.28 5.79 5.79 0 012.2-2.32 6 6 0 013.06-.82 5.48 5.48 0 012.55.64 1.54 1.54 0 00.53.19.57.57 0 00.41-.17 1.37 1.37 0 00.33-.66zM1113.7 211.25a13.63 13.63 0 01-1.56 1.11 2.29 2.29 0 01-1 .22 1.81 1.81 0 01-1.37-.57 2.09 2.09 0 01-.54-1.5 1.84 1.84 0 01.26-1 3.5 3.5 0 011.25-1.13 19.77 19.77 0 013-1.28v-.32a2.66 2.66 0 00-.38-1.65 1.39 1.39 0 00-1.11-.45 1.24 1.24 0 00-.88.3.89.89 0 00-.34.69v.51a.88.88 0 01-.21.62.67.67 0 01-.54.22.7.7 0 01-.53-.23.88.88 0 01-.21-.62 1.78 1.78 0 01.78-1.39 3.34 3.34 0 012.17-.63 3.8 3.8 0 011.76.36 1.63 1.63 0 01.76.85 4.64 4.64 0 01.16 1.54v2.74a12.69 12.69 0 000 1.41.6.6 0 00.15.35.38.38 0 00.23.08.49.49 0 00.25-.06 5.21 5.21 0 00.71-.64v.49c-.66.88-1.28 1.32-1.88 1.32a.86.86 0 01-.69-.3 1.65 1.65 0 01-.24-1.04zm0-.57v-3.07a16.66 16.66 0 00-1.71.75 3 3 0 00-1 .81 1.56 1.56 0 00-.3.92 1.52 1.52 0 00.38 1 1.14 1.14 0 00.87.42 3.16 3.16 0 001.76-.83zm.87-10.48l-2.59 3h-.3l.92-3zM1124 209.35a4.3 4.3 0 01-1.27 2.45 3.06 3.06 0 01-2.1.86 3.1 3.1 0 01-2.39-1.15 4.54 4.54 0 01-1-3.11 4.31 4.31 0 011.13-3.09 3.61 3.61 0 012.71-1.18 3 3 0 012 .62 1.76 1.76 0 01.77 1.31.74.74 0 01-.22.54.81.81 0 01-.6.21.93.93 0 01-.78-.34 1.35 1.35 0 01-.2-.7 1.11 1.11 0 00-.36-.79 1.24 1.24 0 00-.85-.27 1.73 1.73 0 00-1.41.65 3.46 3.46 0 00-.72 2.28 4.66 4.66 0 00.71 2.55 2.18 2.18 0 001.91 1.1 2.33 2.33 0 001.55-.59 4 4 0 00.94-1.47zM1129 205.16l2.47-1h.34V206a4.53 4.53 0 011.25-1.49 2.34 2.34 0 011.32-.42 2.56 2.56 0 012 .94 4.53 4.53 0 011 3 5 5 0 01-1.2 3.44 3.14 3.14 0 01-2.48 1.12 3 3 0 01-1.12-.19 2.53 2.53 0 01-.79-.52v2.45a3.2 3.2 0 00.1 1 .76.76 0 00.35.36 2.32 2.32 0 00.91.13v.32H1129v-.32h.22a1.67 1.67 0 00.83-.19.62.62 0 00.26-.31 3.81 3.81 0 00.09-1.09v-7.61a4 4 0 00-.07-1 .57.57 0 00-.23-.31.71.71 0 00-.41-.11 1.66 1.66 0 00-.54.12zm2.81 1.4v3a6.64 6.64 0 00.08 1.28 1.64 1.64 0 00.6.9 1.9 1.9 0 001.21.38 1.74 1.74 0 001.42-.68 4 4 0 00.71-2.53 4.47 4.47 0 00-.8-2.84 1.7 1.7 0 00-1.34-.68 1.86 1.86 0 00-.84.21 4.85 4.85 0 00-1 .96zM1141 199.92v5.88a6.79 6.79 0 011.55-1.37 2.43 2.43 0 011.14-.3 1.89 1.89 0 011.18.37 2.23 2.23 0 01.73 1.19 8.56 8.56 0 01.16 2.06v2.84a3 3 0 00.13 1 .68.68 0 00.3.33 1.53 1.53 0 00.77.13v.31h-4v-.31h.19a1.36 1.36 0 00.78-.17.94.94 0 00.31-.51 6.14 6.14 0 000-.83v-2.84a6.92 6.92 0 00-.14-1.74 1.13 1.13 0 00-.44-.61 1.22 1.22 0 00-.72-.21 1.93 1.93 0 00-.89.23 4.22 4.22 0 00-1.12.92v4.25a3.39 3.39 0 00.09 1 .72.72 0 00.35.34 1.91 1.91 0 00.86.14v.31h-4v-.31a1.76 1.76 0 00.84-.17.64.64 0 00.29-.33 3.15 3.15 0 00.1-1v-7.28a13.4 13.4 0 00-.06-1.7.82.82 0 00-.21-.43.52.52 0 00-.36-.11 2 2 0 00-.6.14l-.12-.31 2.41-1zM1152.18 211.25a13.63 13.63 0 01-1.56 1.11 2.29 2.29 0 01-1 .22 1.8 1.8 0 01-1.37-.57 2.09 2.09 0 01-.54-1.5 1.84 1.84 0 01.26-1 3.5 3.5 0 011.25-1.13 19.31 19.31 0 013-1.28v-.32a2.66 2.66 0 00-.38-1.65 1.4 1.4 0 00-1.12-.45 1.25 1.25 0 00-.88.3.91.91 0 00-.33.69v.51a.88.88 0 01-.21.62.7.7 0 01-.54.22.69.69 0 01-.53-.23.88.88 0 01-.21-.62 1.78 1.78 0 01.78-1.39 3.34 3.34 0 012.17-.63 3.8 3.8 0 011.76.36 1.63 1.63 0 01.76.85 4.64 4.64 0 01.16 1.54v2.74a12.69 12.69 0 000 1.41.6.6 0 00.15.35.36.36 0 00.23.08.51.51 0 00.25-.06 5.21 5.21 0 00.71-.64v.49c-.66.88-1.29 1.32-1.88 1.32a.86.86 0 01-.69-.3 1.58 1.58 0 01-.24-1.04zm-1.91-11h1.62l1.67 2.91h-.27l-2.4-1.87-2 1.87h-.26zm-1.27-3.87h2l.93 2.94h-.31zm3.18 14.31v-3.07a18.42 18.42 0 00-1.72.75 3 3 0 00-1 .81 1.56 1.56 0 00-.3.92 1.52 1.52 0 00.38 1 1.14 1.14 0 00.87.42 3.16 3.16 0 001.77-.84zM1158 205.83a3.79 3.79 0 012.7-1.7 1.9 1.9 0 011.13.32 2.24 2.24 0 01.76 1.09 5 5 0 01.19 1.62v3.43a2.69 2.69 0 00.13 1 .64.64 0 00.31.34 1.63 1.63 0 00.79.13v.31h-4v-.31h.17a1.4 1.4 0 00.79-.17.94.94 0 00.31-.51 6 6 0 000-.83v-3.25a3.39 3.39 0 00-.28-1.6 1 1 0 00-1-.49 2.91 2.91 0 00-2.09 1.14v4.24a2.79 2.79 0 00.1 1 .79.79 0 00.34.38 2 2 0 00.87.12v.31h-4v-.31h.18a1 1 0 00.83-.32 2.29 2.29 0 00.21-1.19v-3a14.28 14.28 0 00-.06-1.77.78.78 0 00-.21-.43.52.52 0 00-.36-.12 1.71 1.71 0 00-.59.14l-.13-.32 2.42-1h.38zM1171.5 205.84c.58-.59.93-.92 1-1a3.19 3.19 0 01.86-.52 2.41 2.41 0 01.9-.18 2 2 0 011.3.43 2.15 2.15 0 01.73 1.28 6 6 0 011.53-1.39 2.7 2.7 0 011.28-.32 2 2 0 011.14.32 2.18 2.18 0 01.79 1.08 4.83 4.83 0 01.19 1.6v3.46a3 3 0 00.12 1 .68.68 0 00.32.33 1.65 1.65 0 00.77.14v.31h-4v-.31h.17a1.39 1.39 0 00.81-.21.8.8 0 00.29-.44 6.74 6.74 0 000-.86v-3.46a3.05 3.05 0 00-.23-1.39 1.21 1.21 0 00-1.1-.56 2.17 2.17 0 00-.94.23 5.54 5.54 0 00-1.14.87v4.31a3.39 3.39 0 00.09 1 .77.77 0 00.35.34 2 2 0 00.87.14v.31h-4.07v-.31a1.9 1.9 0 00.92-.16.87.87 0 00.35-.48 4.78 4.78 0 000-.87v-3.46a2.51 2.51 0 00-.29-1.41 1.24 1.24 0 00-1.08-.57 2 2 0 00-.94.26 3.57 3.57 0 00-1.12.87v4.31a2.83 2.83 0 00.11 1 .75.75 0 00.32.36 2.09 2.09 0 00.88.12v.31h-4v-.31a1.8 1.8 0 00.78-.12.77.77 0 00.33-.38 2.78 2.78 0 00.12-1v-3.07a11.56 11.56 0 00-.08-1.72.72.72 0 00-.2-.4.53.53 0 00-.36-.11 1.71 1.71 0 00-.59.14l-.13-.32 2.43-1h.38zM1184.46 207.39a4.11 4.11 0 00.87 2.82 2.65 2.65 0 002.07 1 2.24 2.24 0 001.37-.44 3.2 3.2 0 001-1.49l.27.18a4.18 4.18 0 01-1.07 2.19 2.85 2.85 0 01-2.22 1 3.23 3.23 0 01-2.48-1.13 4.33 4.33 0 01-1-3 4.58 4.58 0 011.06-3.22 3.45 3.45 0 012.66-1.15 3 3 0 012.22.89 3.26 3.26 0 01.87 2.38zm1.63-7.15h1.61l1.67 2.91h-.27l-2.4-1.87-2 1.87h-.27zm-1.63 6.64h3.73a3.34 3.34 0 00-.19-1.09 1.74 1.74 0 00-.65-.77 1.65 1.65 0 00-.91-.28 1.82 1.82 0 00-1.31.57 2.45 2.45 0 00-.67 1.57zm.35-10.51h2l.93 2.94h-.3zM1193.49 205.84c.58-.59.93-.92 1-1a3.19 3.19 0 01.86-.52 2.41 2.41 0 01.9-.18 2 2 0 011.3.43 2.15 2.15 0 01.73 1.28 6.13 6.13 0 011.53-1.39 2.7 2.7 0 011.28-.32 2 2 0 011.14.32 2.18 2.18 0 01.79 1.08 4.83 4.83 0 01.19 1.6v3.46a3 3 0 00.12 1 .72.72 0 00.32.33 1.66 1.66 0 00.78.14v.31h-4v-.31h.17a1.37 1.37 0 00.81-.21.8.8 0 00.29-.44 6.74 6.74 0 000-.86v-3.46a3.05 3.05 0 00-.23-1.39 1.21 1.21 0 00-1.1-.56 2.17 2.17 0 00-.94.23 5.54 5.54 0 00-1.14.87v4.31a3.39 3.39 0 00.09 1 .77.77 0 00.35.34 2 2 0 00.87.14v.31h-4.07v-.31a1.9 1.9 0 00.92-.16.87.87 0 00.35-.48 4.78 4.78 0 000-.87v-3.46a2.51 2.51 0 00-.29-1.41 1.23 1.23 0 00-1.08-.57 2 2 0 00-.94.26 3.69 3.69 0 00-1.12.87v4.31a2.83 2.83 0 00.11 1 .75.75 0 00.32.36 2.09 2.09 0 00.88.12v.31h-4v-.31a1.8 1.8 0 00.78-.12.77.77 0 00.33-.38 2.78 2.78 0 00.12-1v-3.07a11.56 11.56 0 00-.08-1.72.72.72 0 00-.2-.4.53.53 0 00-.36-.11 1.71 1.71 0 00-.59.14l-.13-.32 2.43-1h.38zM1131 231a4.36 4.36 0 01-1.27 2.45 3 3 0 01-4.5-.29 4.54 4.54 0 01-1-3.11 4.31 4.31 0 011.13-3.09 3.63 3.63 0 012.72-1.18 3 3 0 012 .62 1.74 1.74 0 01.76 1.31.73.73 0 01-.21.54.85.85 0 01-.61.21 1 1 0 01-.78-.34 1.46 1.46 0 01-.2-.7 1.15 1.15 0 00-.35-.79 1.26 1.26 0 00-.85-.27 1.76 1.76 0 00-1.42.65 3.51 3.51 0 00-.71 2.28 4.57 4.57 0 00.71 2.55 2.17 2.17 0 001.91 1.1 2.3 2.3 0 001.54-.59 3.83 3.83 0 00.94-1.47zM1136.68 232.85a13 13 0 01-1.55 1.11 2.36 2.36 0 01-1 .22 1.82 1.82 0 01-1.38-.57 2.09 2.09 0 01-.54-1.5 1.93 1.93 0 01.26-1 3.46 3.46 0 011.26-1.13 19.09 19.09 0 013-1.28v-.32a2.66 2.66 0 00-.38-1.65 1.39 1.39 0 00-1.11-.45 1.25 1.25 0 00-.88.3.91.91 0 00-.33.69v.51a.92.92 0 01-.2.62.7.7 0 01-.54.22.71.71 0 01-.54-.23.92.92 0 01-.2-.62 1.8 1.8 0 01.77-1.39 3.36 3.36 0 012.17-.63 3.77 3.77 0 011.76.36 1.59 1.59 0 01.76.85 4.64 4.64 0 01.16 1.54v2.74a11.65 11.65 0 000 1.41.6.6 0 00.14.35.4.4 0 00.23.08.49.49 0 00.25-.06 5.21 5.21 0 00.71-.64v.49c-.65.88-1.28 1.32-1.88 1.32a.84.84 0 01-.68-.3 1.64 1.64 0 01-.26-1.04zm-1.9-11h1.61l1.67 2.91h-.27l-2.4-1.87-2 1.87h-.27zm-1.28-3.85h2l.93 2.94h-.31zm3.18 14.31v-3.07c-.88.36-1.45.6-1.71.75a2.92 2.92 0 00-1 .81 1.56 1.56 0 00-.3.92 1.51 1.51 0 00.37 1.05 1.17 1.17 0 00.87.42 3.14 3.14 0 001.77-.91zM1142.46 227.43a3.77 3.77 0 012.7-1.7 2 2 0 011.13.32 2.17 2.17 0 01.75 1.09 5 5 0 01.2 1.62v3.43a3 3 0 00.12 1 .73.73 0 00.31.34 1.67 1.67 0 00.8.13v.34h-4v-.31h.16a1.38 1.38 0 00.79-.17.94.94 0 00.31-.51 4.23 4.23 0 000-.83v-3.28a3.37 3.37 0 00-.29-1.6 1 1 0 00-1-.49 2.89 2.89 0 00-2.08 1.14v4.24a3.18 3.18 0 00.09 1 .91.91 0 00.34.38 2.12 2.12 0 00.88.12v.31h-4v-.31h.17a.94.94 0 00.83-.32 2.27 2.27 0 00.22-1.19v-3a11.75 11.75 0 00-.07-1.77.72.72 0 00-.2-.43.53.53 0 00-.37-.12 1.61 1.61 0 00-.58.14l-.14-.32 2.43-1h.38zM1156 223.32V226h1.88v.62H1156v5.22a1.74 1.74 0 00.22 1 .72.72 0 00.58.28 1 1 0 00.56-.18 1.16 1.16 0 00.42-.54h.35a2.81 2.81 0 01-.87 1.3 1.92 1.92 0 01-1.17.44 1.59 1.59 0 01-.79-.23 1.42 1.42 0 01-.57-.64 3.47 3.47 0 01-.18-1.29v-5.41h-1.28v-.29a3.17 3.17 0 001-.66 4.85 4.85 0 00.9-1.09 8.76 8.76 0 00.57-1.22zM1161 221.52v5.88a6.79 6.79 0 011.54-1.37 2.44 2.44 0 011.15-.3 1.88 1.88 0 011.17.37 2.23 2.23 0 01.73 1.19 8.41 8.41 0 01.17 2.06v2.84a3.08 3.08 0 00.12 1.05.68.68 0 00.3.33 1.56 1.56 0 00.77.13v.3h-4v-.31h.18a1.38 1.38 0 00.79-.17.93.93 0 00.3-.51 6.14 6.14 0 000-.83v-2.84a6.92 6.92 0 00-.14-1.74 1.12 1.12 0 00-.43-.61 1.22 1.22 0 00-.72-.21 1.94 1.94 0 00-.9.23 4.21 4.21 0 00-1.11.92v4.25a3.39 3.39 0 00.09 1 .7.7 0 00.34.34 2 2 0 00.87.14v.34h-4v-.31a1.81 1.81 0 00.84-.17.62.62 0 00.28-.33 3.06 3.06 0 00.11-1v-7.28a12.61 12.61 0 00-.07-1.7.75.75 0 00-.2-.43.53.53 0 00-.37-.11 1.88 1.88 0 00-.59.14l-.13-.31 2.41-1zM1170.39 225.73v6.46a2.81 2.81 0 00.11 1 .73.73 0 00.32.37 1.65 1.65 0 00.79.13v.31h-3.91v-.31a1.73 1.73 0 00.79-.12.72.72 0 00.32-.38 2.78 2.78 0 00.12-1v-3.1a11.16 11.16 0 00-.08-1.69.71.71 0 00-.19-.4.57.57 0 00-.36-.11 1.71 1.71 0 00-.6.14l-.12-.32 2.42-1zm-.73-4.21a.87.87 0 01.63.25.91.91 0 010 1.27.88.88 0 01-.63.26.86.86 0 01-.63-.26.87.87 0 01-.27-.64.89.89 0 01.26-.63.87.87 0 01.64-.25zM1174 229a4.11 4.11 0 00.87 2.82 2.64 2.64 0 002.06 1 2.25 2.25 0 001.38-.44 3.28 3.28 0 001-1.49l.27.18a4.18 4.18 0 01-1.07 2.19 2.87 2.87 0 01-2.23 1 3.26 3.26 0 01-2.48-1.13 4.32 4.32 0 01-1-3 4.58 4.58 0 011.06-3.22 3.44 3.44 0 012.66-1.15 3 3 0 012.22.89 3.26 3.26 0 01.87 2.38zm1.62-7.15h1.62l1.67 2.91h-.27l-2.4-1.87-2 1.87h-.26zm-1.62 6.64h3.72a3.56 3.56 0 00-.18-1.08 1.8 1.8 0 00-.66-.78 1.62 1.62 0 00-.91-.28 1.8 1.8 0 00-1.3.57 2.4 2.4 0 00-.67 1.56zm1.93-7.57h-.31l.93-2.94h2zM1182.94 223.32V226h1.88v.62h-1.88v5.22a1.74 1.74 0 00.22 1 .72.72 0 00.58.28 1 1 0 00.56-.18 1.16 1.16 0 00.42-.54h.35a2.81 2.81 0 01-.87 1.3 1.91 1.91 0 01-1.16.44 1.54 1.54 0 01-.79-.23 1.39 1.39 0 01-.58-.64 3.47 3.47 0 01-.18-1.29v-5.41h-1.28v-.29a3.17 3.17 0 001-.66 4.85 4.85 0 00.9-1.09 8.76 8.76 0 00.57-1.22zM1076.74 216.66c.69-1.14.63-1.36-.66-2.44a3.55 3.55 0 00-4.88.38 1.72 1.72 0 000 2.61c1.71 1.21 4.36 1.2 5.54-.55zM1064.5 216.66c.69-1.14.63-1.36-.66-2.44a3.55 3.55 0 00-4.88.38 1.72 1.72 0 000 2.61c1.71 1.21 4.36 1.2 5.54-.55zM1052.26 216.22c.69-1.14.63-1.36-.66-2.43a3.55 3.55 0 00-4.88.38 1.7 1.7 0 000 2.6c1.71 1.23 4.36 1.23 5.54-.55zM1040 215.65c.69-1.14.63-1.37-.66-2.44a3.55 3.55 0 00-4.88.38 1.72 1.72 0 000 2.61c1.73 1.21 4.38 1.2 5.54-.55zM1028.89 215.65c.68-1.14.62-1.37-.67-2.44a3.54 3.54 0 00-4.87.38 1.71 1.71 0 000 2.61c1.7 1.21 4.36 1.2 5.54-.55zM1016.85 215.14c.69-1.14.63-1.36-.67-2.43a3.54 3.54 0 00-4.87.38 1.7 1.7 0 00.05 2.6c1.64 1.22 4.31 1.2 5.49-.55z" transform="translate(-261.54 -38.74)"/></g><g id="_Group_name_phan-mem-soan_" data-name="&lt;Group name=&quot;phan-mem-soan&quot;&gt;"><path d="M1231.43 190.67c-.13-1.33-.31-1.47-2-1.56a3.56 3.56 0 00-3.68 3.23c0 1.19.48 2 1.6 2.07 2.07-.02 4.19-1.62 4.08-3.74zM1241.94 179.45c-.1-1.33-.28-1.47-2-1.61a3.55 3.55 0 00-3.75 3.15c-.08 1.18.43 2 1.54 2.1 2.1.03 4.27-1.52 4.21-3.64zM1254.05 168.38c-.18-1.32-.36-1.46-2-1.49a3.54 3.54 0 00-3.57 3.35c0 1.18.55 2 1.67 2 2.01-.08 4.07-1.75 3.9-3.86zM1264.48 156.68c0-1.33-.22-1.49-1.89-1.69a3.54 3.54 0 00-3.89 3c-.13 1.18.34 2 1.46 2.17 2.05.09 4.28-1.36 4.32-3.48zM1275.16 147.12c.08-1.34-.07-1.51-1.71-1.87a3.54 3.54 0 00-4.16 2.58c-.24 1.16.14 2.06 1.24 2.3 2.03.32 4.38-.91 4.63-3.01z" transform="translate(-261.54 -38.74)"/><path fill="#fff" stroke="#000" stroke-miterlimit="10" d="M1017 88.14h106.91v28.44H1017z"/><text font-family="TimesNewRomanPSMT,Times New Roman" font-size="14.047" transform="translate(1021.73 106.94)"><tspan xml:space="preserve">Phần mềm soạn</tspan></text></g><g id="_Group_name_server_" data-name="&lt;Group name=&quot;server&quot;&gt;"><path d="M1231 216.19c.68-1.14.62-1.36-.67-2.43a3.54 3.54 0 00-4.87.38 1.7 1.7 0 000 2.6c1.72 1.26 4.38 1.2 5.54-.55zM1241.91 215.73c.72-1.12.66-1.34-.6-2.45a3.55 3.55 0 00-4.88.24 1.71 1.71 0 000 2.61c1.57 1.26 4.25 1.32 5.48-.4zM1253.18 216.21c.69-1.13.63-1.35-.65-2.44a3.56 3.56 0 00-4.88.35 1.7 1.7 0 000 2.6c1.68 1.28 4.35 1.28 5.53-.51zM1264.42 216.69c.7-1.13.65-1.35-.63-2.44a3.55 3.55 0 00-4.88.32c-.76.91-.84 1.88 0 2.6 1.66 1.24 4.31 1.26 5.51-.48zM1274.29 216.7c.71-1.13.65-1.35-.62-2.45a3.57 3.57 0 00-4.89.31 1.72 1.72 0 000 2.61c1.65 1.23 4.31 1.26 5.51-.47z" transform="translate(-261.54 -38.74)"/><path fill="#fff" stroke="#000" stroke-miterlimit="10" d="M1018.18 165.76h51.84v21.6h-51.84z"/><text font-family="TimesNewRomanPSMT,Times New Roman" font-size="14" transform="translate(1027.3 180.4)">Server</text></g><g id="_Group_name_database_" data-name="&lt;Group name=&quot;database&quot;&gt;"><path d="M1230.17 241.85c1.17-.65 1.22-.87.65-2.45a3.57 3.57 0 00-4.42-2.11c-1.1.42-1.64 1.23-1.26 2.28.86 1.88 3.13 3.2 5.03 2.28zM1241.39 247.8c.91-1 .9-1.2-.12-2.53a3.55 3.55 0 00-4.84-.69c-.93.74-1.21 1.67-.52 2.56 1.35 1.54 3.94 2.11 5.48.66zM1260.54 259.28c1.12-.72 1.17-.94.49-2.48a3.54 3.54 0 00-4.53-1.83c-1.08.49-1.57 1.33-1.12 2.35.94 1.83 3.32 3 5.16 1.96zM1270.26 266.5c1.19-.59 1.26-.81.75-2.41a3.56 3.56 0 00-4.32-2.3c-1.12.37-1.7 1.15-1.36 2.22.75 1.92 2.99 3.33 4.93 2.49zM1250.29 252.77c1.12-.72 1.17-1 .48-2.48a3.55 3.55 0 00-4.54-1.82c-1.07.5-1.56 1.34-1.11 2.36.96 1.82 3.34 2.99 5.17 1.94z" transform="translate(-261.54 -38.74)"/><path fill="#fff" stroke="#000" stroke-miterlimit="10" d="M1014.55 220h60.39v19.92h-60.39z"/><text font-family="TimesNewRomanPSMT,Times New Roman" font-size="14" transform="translate(1017.07 233.39)">Database</text></g><g id="_Group_name_xampp_" data-name="&lt;Group name=&quot;xampp&quot;&gt;"><path d="M1347.28 278.49c1.26-.51 1.35-.72.93-2.35a3.68 3.68 0 00-4.3-2.58c-1.18.3-1.83 1-1.55 2.13.64 1.96 2.86 3.52 4.92 2.8zM1355.85 284.61c1.06-.84 1.08-1.07.2-2.52a3.73 3.73 0 00-4.87-1.29c-1 .62-1.45 1.51-.86 2.47 1.19 1.73 3.77 2.59 5.53 1.34zM1363.18 291c1.19-.65 1.25-.88.64-2.45a3.7 3.7 0 00-4.58-2.07c-1.13.43-1.69 1.24-1.28 2.29.88 1.86 3.27 3.16 5.22 2.23z" transform="translate(-261.54 -38.74)"/><path fill="#fff" stroke="#000" stroke-miterlimit="10" d="M1105.8 244.07h61.69v16.79h-61.69z"/><text font-family="TimesNewRomanPSMT,Times New Roman" font-size="14" transform="matrix(1.03 0 0 1 1112.95 256.54)">XAMP <tspan x="40.46" y="0" letter-spacing="-.037em">P</tspan></text></g><g id="_Group_name_wampserver_" data-name="&lt;Group name=&quot;wampserver&quot;&gt;"><path d="M1343.53 269.73c.81-1.05.78-1.28-.38-2.49a3.56 3.56 0 00-4.89-.19 1.72 1.72 0 00-.25 2.6c1.51 1.35 4.15 1.69 5.52.08zM1355.8 269.67c.78-1.07.74-1.3-.44-2.49a3.55 3.55 0 00-4.89-.07 1.71 1.71 0 00-.19 2.6c1.54 1.36 4.18 1.59 5.52-.04zM1368.35 269.49c.71-1.12.66-1.34-.6-2.46a3.54 3.54 0 00-4.88.25 1.71 1.71 0 000 2.61c1.6 1.25 4.25 1.32 5.48-.4zM1379.45 269.28c.64-1.17.57-1.39-.77-2.4a3.56 3.56 0 00-4.86.59 1.71 1.71 0 00.17 2.6c1.71 1.14 4.36 1.01 5.46-.79z" transform="translate(-261.54 -38.74)"/><path fill="#fff" stroke="#000" stroke-miterlimit="10" d="M1121.08 220.68h83.89v19.06h-83.89z"/><text font-family="TimesNewRomanPSMT,Times New Roman" font-size="14" transform="translate(1126.12 233.2)"><tspan letter-spacing="-.08em">W</tspan> <tspan x="12.09" y="0">ampServer</tspan></text></g><g id="_Group_name_apache_" data-name="&lt;Group name=&quot;apache&quot;&gt;"><path d="M1342.19 214.15c1-.89 1-1.12.09-2.53a3.56 3.56 0 00-4.77-1.09 1.72 1.72 0 00-.73 2.51c1.22 1.65 3.76 2.43 5.41 1.11zM1353.81 213.8c.86-1 .84-1.25-.26-2.52a3.55 3.55 0 00-4.87-.43 1.72 1.72 0 00-.38 2.59c1.44 1.47 4.06 1.89 5.51.36zM1365.92 213.71c.83-1 .8-1.27-.34-2.51a3.55 3.55 0 00-4.89-.26 1.7 1.7 0 00-.29 2.59c1.49 1.47 4.12 1.76 5.52.18zM1377.56 213.89c.9-1 .88-1.21-.17-2.53a3.55 3.55 0 00-4.86-.59 1.71 1.71 0 00-.46 2.57c1.38 1.52 3.98 2.03 5.49.55zM1388.26 213.45c.73-1.12.68-1.34-.57-2.47a3.54 3.54 0 00-4.89.19 1.71 1.71 0 000 2.61c1.56 1.28 4.2 1.37 5.46-.33z" transform="translate(-261.54 -38.74)"/><path fill="#fff" stroke="#000" stroke-miterlimit="10" d="M1129 163.67h53.98v16.99H1129z"/><text font-family="TimesNewRomanPSMT,Times New Roman" font-size="14" transform="translate(1134.79 175.12)">Apache</text></g><g id="_Group_name_IIS_" data-name="&lt;Group name=&quot;IIS&quot;&gt;"><path d="M1348.82 225.87c1-.83 1-1.06.22-2.52a3.55 3.55 0 00-4.7-1.34 1.71 1.71 0 00-.87 2.46c1.14 1.72 3.63 2.64 5.35 1.4zM1338.84 221c1.05-.81 1.08-1 .27-2.51a3.54 3.54 0 00-4.68-1.42 1.71 1.71 0 00-.91 2.45c1.11 1.77 3.58 2.73 5.32 1.48zM1358.22 231c1.15-.67 1.2-.9.58-2.46a3.54 3.54 0 00-4.46-2c-1.09.45-1.61 1.27-1.2 2.31.86 1.85 3.2 3.15 5.08 2.15zM1367.54 236.07c1.16-.64 1.23-.86.66-2.44a3.53 3.53 0 00-4.39-2.15c-1.11.41-1.66 1.21-1.28 2.27.81 1.89 3.1 3.25 5.01 2.32zM1377 239.27c1.14-.67 1.2-.9.58-2.46a3.55 3.55 0 00-4.46-2c-1.09.45-1.62 1.27-1.21 2.32.89 1.87 3.22 3.11 5.09 2.14z" transform="translate(-261.54 -38.74)"/><path fill="#fff" stroke="#000" stroke-miterlimit="10" d="M1120.17 191.66h38.13v16.99h-38.13z"/><text font-family="TimesNewRomanPSMT,Times New Roman" font-size="14" transform="translate(1131.21 205.17)">IIS</text></g><g id="_Group_name_visual-studio-code_" data-name="&lt;Group name=&quot;visual-studio-code&quot;&gt;"><path d="M1425.68 106.66c0-1.33-.18-1.49-1.84-1.74a3.54 3.54 0 00-4 2.86c-.16 1.17.29 2 1.4 2.2 2.08.18 4.34-1.21 4.44-3.32zM1418.11 112.19c-.12-1.33-.3-1.47-2-1.57a3.55 3.55 0 00-3.7 3.2c-.06 1.18.46 2 1.58 2.07 2.08-.01 4.21-1.59 4.12-3.7zM1407.91 120.17c-.18-1.32-.37-1.45-2.05-1.49a3.55 3.55 0 00-3.56 3.35c0 1.19.55 2 1.67 2 2.03-.09 4.12-1.76 3.94-3.86zM1395.53 128.44c-.18-1.31-.37-1.45-2-1.48a3.54 3.54 0 00-3.55 3.36c0 1.18.55 2 1.67 2 2.01-.1 4.07-1.77 3.88-3.88z" transform="translate(-261.54 -38.74)"/><path fill="#fff" stroke="#000" stroke-miterlimit="10" d="M1167.49 57.45h113.95v16.99h-113.95z"/><text font-family="TimesNewRomanPSMT,Times New Roman" font-size="14" transform="translate(1172.53 69.87)"><tspan letter-spacing="-.06em">V</tspan> <tspan x="9.27" y="0">isual studio code</tspan></text></g><g id="_Group_name_netbean_" data-name="&lt;Group name=&quot;netbean&quot;&gt;"><path d="M1394.83 139.15c.39-1.27.28-1.47-1.23-2.21a3.55 3.55 0 00-4.65 1.52 1.72 1.72 0 00.67 2.53c1.9.79 4.48.15 5.21-1.84zM1405 136c.28-1.3.15-1.49-1.41-2.09a3.55 3.55 0 00-4.5 1.93 1.7 1.7 0 00.89 2.45c1.96.59 4.47-.29 5.02-2.29zM1425.75 130.28c.28-1.3.15-1.49-1.42-2.09a3.54 3.54 0 00-4.49 1.93 1.7 1.7 0 00.89 2.45c1.96.62 4.47-.25 5.02-2.29zM1416.37 133.57c.28-1.3.15-1.49-1.42-2.09a3.55 3.55 0 00-4.49 1.93 1.72 1.72 0 00.88 2.46c1.97.61 4.48-.25 5.03-2.3z" transform="translate(-261.54 -38.74)"/><path fill="#fff" stroke="#000" stroke-miterlimit="10" d="M1167.49 81.48h58.32v17.28h-58.32z"/><text font-family="TimesNewRomanPSMT,Times New Roman" font-size="14" transform="translate(1174.69 93.58)">Netbean</text></g><g id="_Group_name_phpstorm_" data-name="&lt;Group name=&quot;phpstorm&quot;&gt;"><path d="M1394.29 147.91c1-.87 1-1.1.13-2.53a3.55 3.55 0 00-4.75-1.15 1.71 1.71 0 00-.77 2.49c1.2 1.67 3.73 2.49 5.39 1.19zM1405.66 151.06c1-.8 1.08-1 .28-2.51a3.55 3.55 0 00-4.67-1.46 1.71 1.71 0 00-.92 2.44c1.09 1.75 3.56 2.72 5.31 1.53zM1416 154.5c.84-1 .82-1.26-.3-2.52a3.55 3.55 0 00-4.88-.34 1.71 1.71 0 00-.34 2.58c1.52 1.45 4.11 1.83 5.52.28zM1425.35 157.73c1-.9 1-1.13 0-2.53a3.55 3.55 0 00-4.78-1 1.71 1.71 0 00-.69 2.52c1.29 1.63 3.84 2.37 5.47 1.01z" transform="translate(-261.54 -38.74)"/><path fill="#fff" stroke="#000" stroke-miterlimit="10" d="M1167.49 105.81h68.29v17.28h-68.29z"/><text font-family="TimesNewRomanPSMT,Times New Roman" font-size="14" transform="translate(1172.05 119.21)">PH <tspan x="17.9" y="0" letter-spacing="-.037em">P</tspan> <tspan x="25.16" y="0" xml:space="preserve"> storm</tspan></text></g><g id="_Group_name_notepad_" data-name="&lt;Group name=&quot;notepad++&quot;&gt;"><path d="M1426.1 179.42c1.17-.54 1.23-.75.68-2.26a3.7 3.7 0 00-4.35-2.21c-1.1.34-1.66 1.07-1.29 2.08.79 1.81 3.05 3.16 4.96 2.39zM1417.12 173.18c1.23-.51 1.31-.72.91-2.36a3.56 3.56 0 00-4.15-2.59c-1.14.3-1.77 1-1.51 2.13.63 1.97 2.76 3.53 4.75 2.82zM1408.91 166.61c1.22-.54 1.3-.76.87-2.38a3.55 3.55 0 00-4.2-2.51c-1.14.32-1.76 1.08-1.47 2.16.66 1.95 2.83 3.48 4.8 2.73zM1401.08 160.07c1.12-.71 1.17-.94.5-2.48a3.55 3.55 0 00-4.53-1.86c-1.08.49-1.57 1.33-1.13 2.36.94 1.83 3.31 3.01 5.16 1.98zM1391.77 155.35c1.15-.68 1.2-.9.59-2.47a3.55 3.55 0 00-4.46-2c-1.1.45-1.62 1.27-1.21 2.31.87 1.86 3.2 3.13 5.08 2.16z" transform="translate(-261.54 -38.74)"/><path fill="#fff" stroke="#000" stroke-miterlimit="10" d="M1167.49 130.13h72.61v16.99h-72.61z"/><text font-family="TimesNewRomanPSMT,Times New Roman" font-size="14" transform="translate(1172.05 143.07)">Notepad++</text></g><g id="_Group_name_kien-thuc-cua-1-website_" data-name="&lt;Group name=&quot;kien-thuc-cua-1-website&quot;&gt;"><path fill="#fff" stroke="#000" stroke-miterlimit="10" stroke-width="1.5" d="M362.35 86.65h141.48v59.4H362.35z"/><path d="M807.45 197c1.27-.41 1.37-.62 1.1-2.28a3.56 3.56 0 00-3.93-2.91c-1.16.2-1.85.89-1.67 2 .45 2.01 2.46 3.75 4.5 3.19zM799.11 189.15c1.29-.31 1.41-.5 1.27-2.18a3.54 3.54 0 00-3.69-3.21c-1.17.11-1.91.75-1.82 1.86.3 2.04 2.13 3.92 4.24 3.53zM790.15 181.62c1.31-.19 1.45-.38 1.47-2.05a3.56 3.56 0 00-3.38-3.55c-1.18 0-2 .57-2 1.69.12 2.05 1.76 4.1 3.91 3.91zM782.11 174.39c1.29-.31 1.4-.51 1.26-2.19a3.56 3.56 0 00-3.7-3.2c-1.18.12-1.91.76-1.82 1.87.31 2.03 2.15 3.91 4.26 3.52zM773.9 166.21c1.3-.31 1.41-.51 1.27-2.19a3.56 3.56 0 00-3.7-3.2c-1.18.12-1.92.76-1.82 1.87.35 2.03 2.18 3.91 4.25 3.52z" transform="translate(-261.54 -38.74)"/><text font-family="TimesNewRomanPSMT,Times New Roman" font-size="18" transform="translate(379.94 112.86)">Kiến thức của</text><text font-family="TimesNewRomanPSMT,Times New Roman" font-size="18" transform="translate(395.78 133.87)">1 website</text></g><g id="_Group_name_kien-thuc-co-ban-cua-1-web_" data-name="&lt;Group name=&quot;kien-thuc-co-ban-cua-1-web&quot;&gt;"><path d="M804.22 235c.36 1.27.57 1.38 2.23 1.17a3.55 3.55 0 003-3.82c-.16-1.17-.83-1.89-1.94-1.75-1.97.4-3.77 2.4-3.29 4.4zM795 245.22c.44 1.25.65 1.35 2.3 1.05a3.56 3.56 0 002.84-4c-.23-1.16-.93-1.84-2-1.64-2.06.52-3.75 2.56-3.14 4.59zM786.5 255.77c.51 1.23.72 1.31 2.35.91a3.55 3.55 0 002.6-4.14c-.3-1.15-1-1.78-2.13-1.51-1.96.61-3.53 2.75-2.82 4.74zM778.06 264.66c.4 1.26.61 1.36 2.27 1.1a3.54 3.54 0 002.93-3.91c-.2-1.17-.88-1.86-2-1.68-2 .44-3.74 2.44-3.2 4.49zM768.16 273.29c.17 1.32.35 1.46 2 1.51a3.56 3.56 0 003.6-3.32c0-1.18-.53-2-1.65-2-2.02.06-4.11 1.7-3.95 3.81z" transform="translate(-261.54 -38.74)"/><path fill="#fff" stroke="#000" stroke-miterlimit="10" stroke-width="1.5" d="M362.35 207.8h141.48v59.4H362.35z"/><text font-family="TimesNewRomanPSMT,Times New Roman" font-size="18" transform="translate(373.46 233.39)">Kiến thức cơ bản</text><text font-family="TimesNewRomanPSMT,Times New Roman" font-size="18" transform="translate(395.78 256.72)">của 1 web</text></g><g id="_Group_name_HTML_" data-name="&lt;Group name=&quot;HTML&quot;&gt;"><path d="M614.12 253.5c-1.08.82-1.11 1.06-.34 2.62a3.48 3.48 0 004.64 1.61 1.81 1.81 0 001-2.53c-1.09-1.84-3.53-2.91-5.3-1.7zM599.73 249c-.91 1-.9 1.25.13 2.64a3.45 3.45 0 004.85.7 1.85 1.85 0 00.51-2.68c-1.37-1.66-3.96-2.21-5.49-.66zM586.42 244c-.91 1-.89 1.26.15 2.64a3.43 3.43 0 004.84.67 1.84 1.84 0 00.5-2.68c-1.37-1.63-3.97-2.17-5.49-.63zM572.92 239.41c-1 .84-1.07 1.08-.27 2.62a3.46 3.46 0 004.68 1.5 1.81 1.81 0 00.91-2.55c-1.1-1.82-3.57-2.83-5.32-1.57zM560.71 235.47c-1 .92-1 1.16-.1 2.64a3.46 3.46 0 004.77 1.15 1.83 1.83 0 00.74-2.62c-1.22-1.73-3.76-2.55-5.41-1.17z" transform="translate(-261.54 -38.74)"/><path fill="#fff" stroke="#000" stroke-miterlimit="10" d="M201.39 185.27h93.24v29.67h-93.24z"/><text font-family="TimesNewRomanPSMT,Times New Roman" font-size="18.846" transform="matrix(.96 0 0 1 225.86 207.26)">HTM <tspan x="41.88" y="0" letter-spacing="-.037em">L</tspan></text></g><g id="_Group_name_CSS_" data-name="&lt;Group name=&quot;CSS&quot;&gt;"><path d="M614.73 281.4c-.56 1.2-.48 1.42.92 2.35a3.55 3.55 0 004.81-.88 1.7 1.7 0 00-.32-2.58c-1.77-1.04-4.41-.75-5.41 1.11zM603.17 281.32c-.6 1.19-.52 1.41.85 2.38a3.54 3.54 0 004.83-.76 1.71 1.71 0 00-.25-2.59c-1.75-1.08-4.39-.87-5.43.97zM589.34 281.45c-.54 1.21-.46 1.42.95 2.34a3.56 3.56 0 004.8-1 1.71 1.71 0 00-.36-2.58c-1.79-.97-4.42-.64-5.39 1.24zM575.56 281.55c-.51 1.23-.41 1.44 1 2.31a3.57 3.57 0 004.77-1.12 1.72 1.72 0 00-.44-2.57c-1.81-.94-4.43-.53-5.33 1.38zM560.65 281.56c-.51 1.23-.42 1.44 1 2.32a3.55 3.55 0 004.76-1.1 1.71 1.71 0 00-.43-2.57c-1.8-.95-4.42-.55-5.33 1.35z" transform="translate(-261.54 -38.74)"/><path fill="#fff" stroke="#000" stroke-miterlimit="10" d="M201.39 236.05h93.24v28.34h-93.24z"/><text font-family="TimesNewRomanPSMT,Times New Roman" font-size="18" transform="translate(230.18 255.46)">CSS</text></g><g id="_Group_name_JS_" data-name="&lt;Group name=&quot;JS&quot;&gt;"><path d="M614.88 301.7c.21 1.32.4 1.45 2.08 1.44a3.54 3.54 0 003.48-3.43c0-1.19-.59-2-1.71-2-2.05.18-4.08 1.89-3.85 3.99zM602.85 313.76c.24 1.31.43 1.43 2.11 1.39a3.55 3.55 0 003.4-3.51c-.05-1.18-.64-2-1.76-1.93-2.04.19-4.03 1.96-3.75 4.05zM589.64 324.31c.17 1.32.35 1.45 2 1.5a3.55 3.55 0 003.6-3.31c0-1.18-.53-2-1.65-2-2.02.05-4.1 1.7-3.95 3.81zM577 332.8c0 1.33.16 1.48 1.82 1.75a3.55 3.55 0 004-2.82c.17-1.17-.27-2-1.37-2.22-2.05-.19-4.32 1.18-4.45 3.29zM563.41 340.23c-.18 1.32 0 1.5 1.58 2a3.55 3.55 0 004.32-2.29c.32-1.14 0-2.05-1.07-2.37-2.01-.48-4.44.59-4.83 2.66z" transform="translate(-261.54 -38.74)"/><path fill="#fff" stroke="#000" stroke-miterlimit="10" d="M201.39 284.4h93.24v28.34h-93.24z"/><text font-family="TimesNewRomanPSMT,Times New Roman" font-size="18" transform="translate(242.42 303.59)">JS</text></g><g id="_Group_name_mo-hinh-client-server_" data-name="&lt;Group name=&quot;mo-hinh-client-server&quot;&gt;"><path d="M613.49 124.92c-1.07.79-1.1 1-.33 2.51a3.55 3.55 0 004.64 1.57c1-.56 1.48-1.42 1-2.42-1.09-1.79-3.54-2.81-5.31-1.66zM601.33 117c-1.15.67-1.21.89-.6 2.45a3.55 3.55 0 004.45 2c1.1-.45 1.63-1.26 1.22-2.31-.87-1.83-3.19-3.14-5.07-2.14zM588.3 108.73c-1.13.7-1.18.92-.53 2.47a3.54 3.54 0 004.5 1.91c1.09-.47 1.59-1.3 1.16-2.33-.91-1.84-3.27-3.06-5.13-2.05zM576.63 102c-1.17.63-1.23.85-.67 2.43a3.55 3.55 0 004.38 2.18c1.11-.41 1.66-1.21 1.29-2.27-.8-1.9-3.08-3.25-5-2.34zM564.63 96.87c-1.18.61-1.24.83-.71 2.42a3.55 3.55 0 004.35 2.24c1.12-.39 1.68-1.18 1.33-2.24-.78-1.9-3.04-3.29-4.97-2.42z" transform="translate(-261.54 -38.74)"/><path fill="#fff" stroke="#000" stroke-miterlimit="10" d="M55.94 37.16h238.69V65.5H55.94z"/><text font-family="TimesNewRomanPSMT,Times New Roman" font-size="18" transform="translate(94.82 57.86)">Mô hình client - server</text></g><g id="cac-hoat-dong-cua-website-tinh" className="node--child" data-name="&lt;Group name=&quot;cach-hoat-dong-cua-web-tinh&quot;&gt;"><path d="M614.37 151.3c-1.07.79-1.1 1-.33 2.51a3.55 3.55 0 004.64 1.54 1.7 1.7 0 001-2.42c-1.09-1.76-3.54-2.78-5.31-1.63zM600.45 146.38c-1.13.7-1.17.93-.51 2.47a3.55 3.55 0 004.52 1.88c1.08-.48 1.58-1.32 1.14-2.35-.93-1.83-3.3-3.03-5.15-2zM587 141.72c-1.09.76-1.12 1-.38 2.49a3.55 3.55 0 004.6 1.65c1.06-.54 1.52-1.4 1-2.4-.96-1.79-3.38-2.86-5.22-1.74zM573.35 137.65c-1.12.72-1.16.94-.49 2.48a3.55 3.55 0 004.54 1.87c1.07-.49 1.57-1.33 1.11-2.36-.94-1.86-3.32-3.03-5.16-1.99zM561 134c-1 .85-1 1.08-.19 2.52a3.55 3.55 0 004.72 1.28c1-.62 1.4-1.51.83-2.47-1.13-1.71-3.63-2.59-5.36-1.33z" transform="translate(-261.54 -38.74)"/><path fill="#fff" stroke="#000" stroke-miterlimit="10" d="M55.94 84.52h238.69v28.34H55.94z"/><text font-family="TimesNewRomanPSMT,Times New Roman" font-size="18" transform="translate(72.5 103.49)">Cách hoạt động của web tĩnh</text></g><g id="_Group_name_cach-hoat-dong-cua-web-dong_" data-name="&lt;Group name=&quot;cach-hoat-dong-cua-web-dong&quot;&gt;"><path d="M613.21 174.46c-.51 1.23-.41 1.44 1 2.32a3.57 3.57 0 004.77-1.1 1.71 1.71 0 00-.44-2.57c-1.8-.96-4.42-.55-5.33 1.35zM599.61 177.1c-.4 1.27-.28 1.47 1.23 2.21a3.54 3.54 0 004.64-1.53 1.7 1.7 0 00-.67-2.52c-1.9-.78-4.47-.14-5.2 1.84zM587.08 178.26c-.55 1.21-.46 1.42.95 2.34a3.55 3.55 0 004.79-1 1.7 1.7 0 00-.35-2.58c-1.79-.97-4.47-.64-5.39 1.24zM574 180.21c-.48 1.23-.38 1.44 1.07 2.29a3.56 3.56 0 004.74-1.19 1.7 1.7 0 00-.48-2.56c-1.84-.92-4.45-.47-5.33 1.46zM559.69 182.65c-.47 1.25-.37 1.46 1.1 2.28a3.55 3.55 0 004.72-1.27 1.71 1.71 0 00-.52-2.56c-1.86-.88-4.46-.38-5.3 1.55z" transform="translate(-261.54 -38.74)"/><path fill="#fff" stroke="#000" stroke-miterlimit="10" d="M55.94 131.88h238.69v28.34H55.94z"/><text font-family="TimesNewRomanPSMT,Times New Roman" font-size="18" transform="translate(66.02 150.46)"><tspan xml:space="preserve">Cách hoạt động của web động</tspan></text></g><g id="_Group_name_chuong-trinh-php-dau-tien_" data-name="&lt;Group name=&quot;chuong-trinh-php-dau-tien&quot;&gt;"><path fill="#fff" stroke="#000" stroke-miterlimit="10" stroke-width="1.5" d="M551.85 341.14h194.4v83.16h-194.4z"/><path fill="#fff" stroke="#000" stroke-miterlimit="10" stroke-width="2" d="M649.05 205.03c10.74 27.26 6.28 46.72 0 59.62-6.37 13.07-12.69 15.42-14.59 27.69 0 0-1.72 11.1 14.59 48.8h0"/><text font-family="TimesNewRomanPSMT,Times New Roman" font-size="24" transform="translate(558.86 372.46)">Chương trình php</text><text font-family="TimesNewRomanPSMT,Times New Roman" font-size="24" transform="translate(607.46 403.78)"><tspan xml:space="preserve">đầu tiên</tspan></text></g><g id="_Group_name_nhung-php-trong-html_" data-name="&lt;Group name=&quot;nhung-php-trong-html&quot;&gt;"><path fill="#fff" stroke="#000" stroke-miterlimit="10" stroke-width="1.5" d="M1009.66 296.64h129.59v40.17h-129.59z"/><path d="M1244 354.75c1.16-.65 1.22-.87.64-2.45a3.56 3.56 0 00-4.41-2.11c-1.11.42-1.65 1.23-1.27 2.28.85 1.88 3.16 3.2 5.04 2.28zM1256.14 354.75c1.16-.65 1.22-.87.64-2.45a3.56 3.56 0 00-4.41-2.11c-1.11.42-1.65 1.23-1.27 2.28.83 1.88 3.14 3.2 5.04 2.28zM1266.24 356c1.17-.65 1.22-.87.65-2.45a3.57 3.57 0 00-4.42-2.11c-1.1.42-1.64 1.23-1.26 2.28.79 1.83 3.13 3.15 5.03 2.28zM1230.68 354.75c1.16-.65 1.22-.87.64-2.45a3.56 3.56 0 00-4.41-2.11c-1.11.42-1.65 1.23-1.26 2.28.83 1.88 3.13 3.2 5.03 2.28zM1279.54 343.25h2.51l5.67 6.95v-5.34a1.83 1.83 0 00-.19-1.07 1 1 0 00-.8-.29h-.32v-.25h3.22v.25h-.32a1 1 0 00-.84.36 2.07 2.07 0 00-.15 1v7.81h-.24l-6.12-7.46v5.7a1.92 1.92 0 00.19 1.07 1 1 0 00.8.29h.33v.25h-3.23v-.25h.32a.93.93 0 00.84-.36 2.07 2.07 0 00.15-1v-6.44a3.92 3.92 0 00-.61-.62 2.32 2.32 0 00-.61-.29 2.2 2.2 0 00-.6-.06zM1292.11 342.8v4.58a5.47 5.47 0 011.2-1.07 1.89 1.89 0 01.89-.24 1.45 1.45 0 01.92.3 1.71 1.71 0 01.56.92 6.38 6.38 0 01.13 1.6v2.21a2.43 2.43 0 00.1.82.58.58 0 00.23.26 1.38 1.38 0 00.6.09v.25h-3.07v-.25h.14a1 1 0 00.61-.13.77.77 0 00.24-.39v-2.86a5.37 5.37 0 00-.11-1.35.94.94 0 00-.33-.48 1 1 0 00-.57-.16 1.54 1.54 0 00-.69.18 3.45 3.45 0 00-.87.72v3.3a2.5 2.5 0 00.07.8.59.59 0 00.27.27 1.53 1.53 0 00.67.1v.25h-3.1v-.25a1.31 1.31 0 00.65-.13.45.45 0 00.22-.26 2.18 2.18 0 00.08-.78v-5.66a8.57 8.57 0 000-1.32.57.57 0 00-.15-.34.44.44 0 00-.29-.09 1.78 1.78 0 00-.46.11l-.1-.24 1.87-.76zM1302.76 346.26v3.79a10.32 10.32 0 000 1.33.55.55 0 00.17.34.4.4 0 00.26.1 1.21 1.21 0 00.48-.12l.09.24-1.87.77h-.31v-1.32a5.9 5.9 0 01-1.23 1.1 1.86 1.86 0 01-.89.22 1.47 1.47 0 01-.92-.3 1.66 1.66 0 01-.53-.79 4.69 4.69 0 01-.15-1.35v-2.79a1.42 1.42 0 00-.1-.62.64.64 0 00-.28-.26 1.8 1.8 0 00-.68-.09v-.25h2.2v4.19a1.59 1.59 0 00.3 1.15 1.09 1.09 0 00.74.27 1.57 1.57 0 00.67-.18 3.67 3.67 0 00.88-.71v-3.55a1 1 0 00-.19-.72 1.31 1.31 0 00-.81-.2v-.25zm-1.15-3.24l-2 2.36h-.23l.72-2.36zM1306.1 347.4a3 3 0 012.09-1.33 1.53 1.53 0 01.89.26 1.7 1.7 0 01.58.84 4 4 0 01.15 1.26v2.67a2.32 2.32 0 00.1.81.57.57 0 00.24.27 1.46 1.46 0 00.62.09v.25h-3.1v-.25h.13a1.06 1.06 0 00.62-.13.77.77 0 00.24-.39 3.77 3.77 0 000-.65v-2.56a2.57 2.57 0 00-.23-1.24.77.77 0 00-.74-.39 2.24 2.24 0 00-1.62.89v3.3a2.42 2.42 0 00.07.79.62.62 0 00.26.29 1.7 1.7 0 00.68.09v.25H1304v-.25h.13a.74.74 0 00.65-.24 1.78 1.78 0 00.17-.93v-2.32a10.92 10.92 0 000-1.37.63.63 0 00-.16-.34.43.43 0 00-.28-.09 1.32 1.32 0 00-.46.11l-.1-.25 1.88-.77h.3zM1313 350.24a2 2 0 01-1.19-1.9 2.13 2.13 0 01.7-1.6 2.49 2.49 0 011.79-.67 2.72 2.72 0 011.55.44h1.33a1.67 1.67 0 01.34 0 .11.11 0 01.07.06.39.39 0 010 .22.66.66 0 010 .24l-.08.06a1.67 1.67 0 01-.34 0h-.81a2.11 2.11 0 01-.29 2.75 2.53 2.53 0 01-1.8.62 3.51 3.51 0 01-1-.13 1.76 1.76 0 00-.41.45.71.71 0 00-.1.33.33.33 0 00.11.23.94.94 0 00.44.16h1c.94 0 1.55.06 1.82.1a1.74 1.74 0 011 .47 1.31 1.31 0 01.38.94 2 2 0 01-.73 1.45 3.89 3.89 0 01-2.78 1 4 4 0 01-2.23-.59c-.34-.23-.51-.47-.51-.71a.8.8 0 01.08-.33 3.36 3.36 0 01.47-.71l.7-.73a2.43 2.43 0 01-.5-.38.57.57 0 01-.15-.38 1.12 1.12 0 01.2-.56 4.29 4.29 0 01.94-.83zm-.07 2.28a3.16 3.16 0 00-.49.65 1.14 1.14 0 00-.16.55.71.71 0 00.39.58 3.84 3.84 0 002 .42 3.09 3.09 0 001.82-.43 1.22 1.22 0 00.58-.93.53.53 0 00-.35-.51 4.75 4.75 0 00-1.41-.17 22.35 22.35 0 01-2.43-.16zm1.25-6.12a1.06 1.06 0 00-.84.41 1.84 1.84 0 00-.34 1.19 2.69 2.69 0 00.46 1.68 1.11 1.11 0 00.9.45 1.09 1.09 0 00.86-.39 1.87 1.87 0 00.33-1.22 2.78 2.78 0 00-.47-1.71 1.08 1.08 0 00-.95-.41zM1321.32 346.88l1.93-.78h.26v1.46a3.53 3.53 0 011-1.15 1.76 1.76 0 011-.34 2 2 0 011.57.74 3.47 3.47 0 01.77 2.35 3.9 3.9 0 01-.93 2.68 2.45 2.45 0 01-1.92.87 2.58 2.58 0 01-.88-.14 2.1 2.1 0 01-.61-.41v1.9a2.71 2.71 0 00.07.82.63.63 0 00.28.28 1.65 1.65 0 00.71.1v.25h-3.28v-.25h.17a1.19 1.19 0 00.64-.14.48.48 0 00.2-.24 3 3 0 00.07-.86v-5.92a3.77 3.77 0 000-.77.45.45 0 00-.18-.24.51.51 0 00-.32-.09 1.38 1.38 0 00-.42.1zm2.19 1.09v2.34a5.08 5.08 0 00.06 1 1.24 1.24 0 00.47.7 1.45 1.45 0 00.94.3 1.35 1.35 0 001.1-.53 3.09 3.09 0 00.56-2 3.4 3.4 0 00-.63-2.21 1.3 1.3 0 00-1-.54 1.4 1.4 0 00-.65.17 3.69 3.69 0 00-.85.8zM1330.61 342.8v4.58a5.47 5.47 0 011.2-1.07 1.89 1.89 0 01.89-.24 1.45 1.45 0 01.92.3 1.71 1.71 0 01.56.92 6.38 6.38 0 01.13 1.6v2.21a2.43 2.43 0 00.1.82.58.58 0 00.23.26 1.38 1.38 0 00.6.09v.25h-3.07v-.25h.14a1 1 0 00.61-.13.77.77 0 00.24-.39v-2.86a5.37 5.37 0 00-.11-1.35.94.94 0 00-.33-.48 1 1 0 00-.57-.16 1.54 1.54 0 00-.69.18 3.45 3.45 0 00-.87.72v3.3a2.5 2.5 0 00.07.8.59.59 0 00.27.27 1.53 1.53 0 00.67.1v.25h-3.1v-.25a1.31 1.31 0 00.65-.13.45.45 0 00.22-.26 2.18 2.18 0 00.08-.78v-5.66a8.57 8.57 0 000-1.32.57.57 0 00-.15-.34.44.44 0 00-.29-.09 1.78 1.78 0 00-.46.11l-.1-.24 1.87-.76zM1335.32 346.88l1.93-.78h.26v1.46a3.53 3.53 0 011-1.15 1.76 1.76 0 011-.34 2 2 0 011.57.74 3.47 3.47 0 01.77 2.35 3.9 3.9 0 01-.93 2.68 2.45 2.45 0 01-1.92.87 2.58 2.58 0 01-.88-.14 2.1 2.1 0 01-.61-.41v1.9a2.71 2.71 0 00.07.82.63.63 0 00.28.28 1.65 1.65 0 00.71.1v.25h-3.28v-.25h.17a1.19 1.19 0 00.64-.14.48.48 0 00.2-.24 3 3 0 00.07-.86v-5.92a3.77 3.77 0 000-.77.45.45 0 00-.18-.24.51.51 0 00-.32-.09 1.38 1.38 0 00-.42.1zm2.19 1.09v2.34a5.08 5.08 0 00.06 1 1.24 1.24 0 00.47.7 1.45 1.45 0 00.94.3 1.35 1.35 0 001.1-.53 3.09 3.09 0 00.56-2 3.4 3.4 0 00-.63-2.21 1.3 1.3 0 00-1-.54 1.4 1.4 0 00-.65.17 3.69 3.69 0 00-.85.8zM1351.59 344.2v2.06h1.46v.48h-1.46v4.06a1.43 1.43 0 00.17.82.57.57 0 00.45.21.82.82 0 00.44-.14.91.91 0 00.33-.41h.26a2.13 2.13 0 01-.67 1 1.47 1.47 0 01-.91.34 1.25 1.25 0 01-.61-.17 1.09 1.09 0 01-.45-.5 2.76 2.76 0 01-.14-1v-4.21h-1v-.23a2.57 2.57 0 00.77-.51 4.23 4.23 0 00.7-.85 8.67 8.67 0 00.44-.95zM1355.49 346.07v1.41c.53-.94 1.06-1.41 1.62-1.41a.9.9 0 01.62.23.72.72 0 01.24.53.64.64 0 01-.17.45.56.56 0 01-.43.19.86.86 0 01-.53-.24.93.93 0 00-.45-.23.38.38 0 00-.26.13 3.29 3.29 0 00-.64.93v3a1.93 1.93 0 00.13.78.69.69 0 00.32.31 1.39 1.39 0 00.65.12v.25h-3.21v-.25a1.32 1.32 0 00.71-.15.57.57 0 00.24-.35 3.84 3.84 0 000-.66v-2.42a10.59 10.59 0 000-1.31.48.48 0 00-.16-.3.44.44 0 00-.3-.1 1.37 1.37 0 00-.48.11l-.07-.25 1.9-.77zM1361.38 346.07a2.79 2.79 0 012.29 1.08 3.33 3.33 0 01.73 2.12 4.18 4.18 0 01-.4 1.71 2.9 2.9 0 01-1.12 1.29 2.84 2.84 0 01-1.57.44 2.65 2.65 0 01-2.25-1.13 3.47 3.47 0 01-.7-2.13 3.85 3.85 0 01.42-1.71 2.87 2.87 0 012.6-1.67zm-.21.45a1.42 1.42 0 00-.72.21 1.53 1.53 0 00-.6.76 3.65 3.65 0 00-.22 1.39 4.83 4.83 0 00.54 2.35 1.61 1.61 0 001.43 1 1.35 1.35 0 001.1-.55 3.17 3.17 0 00.43-1.88 4.3 4.3 0 00-.72-2.63 1.49 1.49 0 00-1.24-.65zM1367.15 347.4a3 3 0 012.1-1.33 1.52 1.52 0 01.88.26 1.78 1.78 0 01.59.84 4 4 0 01.15 1.26v2.67a2.39 2.39 0 00.09.81.54.54 0 00.25.27 1.4 1.4 0 00.61.09v.25h-3.09v-.25h.13a1 1 0 00.61-.13.71.71 0 00.24-.39 3.77 3.77 0 000-.65v-2.56a2.71 2.71 0 00-.22-1.24.8.8 0 00-.75-.39 2.27 2.27 0 00-1.62.89v3.3a2.42 2.42 0 00.07.79.64.64 0 00.27.29 1.63 1.63 0 00.68.09v.25h-3.1v-.25h.14a.72.72 0 00.64-.24 1.78 1.78 0 00.17-.93v-2.32a10.92 10.92 0 000-1.37.63.63 0 00-.16-.34.41.41 0 00-.28-.09 1.32 1.32 0 00-.46.11l-.1-.25 1.88-.77h.3zM1374 350.24a2 2 0 01-.88-.79 2 2 0 01-.31-1.11 2.13 2.13 0 01.7-1.6 2.51 2.51 0 011.79-.67 2.72 2.72 0 011.55.44h1.33a1.67 1.67 0 01.34 0 .11.11 0 01.07.06.39.39 0 010 .22.66.66 0 010 .24l-.07.06a1.9 1.9 0 01-.35 0h-.81a2 2 0 01.38 1.25 2 2 0 01-.67 1.5 2.53 2.53 0 01-1.8.62 3.56 3.56 0 01-1-.13 1.69 1.69 0 00-.4.45.64.64 0 00-.11.33.33.33 0 00.11.23.94.94 0 00.44.16h1c.94 0 1.55.06 1.83.1a1.74 1.74 0 011 .47 1.31 1.31 0 01.38.94 2 2 0 01-.72 1.45 3.91 3.91 0 01-2.79 1 4 4 0 01-2.23-.59c-.34-.23-.51-.47-.51-.71a.8.8 0 01.08-.33 3.12 3.12 0 01.48-.71l.69-.73a2.75 2.75 0 01-.5-.38.57.57 0 01-.15-.38 1.12 1.12 0 01.2-.56 4.29 4.29 0 01.93-.83zm-.07 2.28a3.16 3.16 0 00-.49.65 1.14 1.14 0 00-.16.55.7.7 0 00.4.58 3.77 3.77 0 002 .42 3.07 3.07 0 001.82-.43 1.19 1.19 0 00.58-.93.53.53 0 00-.35-.51 4.7 4.7 0 00-1.41-.17 22.35 22.35 0 01-2.39-.16zm1.26-6.12a1.07 1.07 0 00-.85.41 1.84 1.84 0 00-.34 1.19 2.69 2.69 0 00.46 1.68 1.11 1.11 0 00.9.45 1.08 1.08 0 00.86-.39 1.87 1.87 0 00.33-1.22 2.72 2.72 0 00-.47-1.71 1.08 1.08 0 00-.89-.41zM1282 359.6v4.58a5.25 5.25 0 011.2-1.07 1.86 1.86 0 01.89-.24 1.45 1.45 0 01.92.3 1.71 1.71 0 01.56.92 6.38 6.38 0 01.13 1.6v2.21a2.43 2.43 0 00.1.82.58.58 0 00.23.26 1.38 1.38 0 00.6.09v.25h-3.07v-.25h.14a1 1 0 00.61-.13.77.77 0 00.24-.39v-2.86a5.37 5.37 0 00-.11-1.35.94.94 0 00-.33-.48 1 1 0 00-.57-.16 1.54 1.54 0 00-.69.18 3.45 3.45 0 00-.87.72v3.3a2.5 2.5 0 00.07.8.59.59 0 00.27.27 1.53 1.53 0 00.67.1v.25h-3.1v-.25a1.31 1.31 0 00.65-.13.45.45 0 00.22-.26 2.18 2.18 0 00.08-.78v-5.66a8.57 8.57 0 000-1.32.57.57 0 00-.15-.34.46.46 0 00-.29-.09 1.78 1.78 0 00-.46.11l-.1-.24 1.87-.76zM1289 361v2.06h1.46v.48H1289v4.06a1.43 1.43 0 00.17.82.57.57 0 00.45.21.82.82 0 00.44-.14.91.91 0 00.33-.41h.26a2.13 2.13 0 01-.67 1 1.47 1.47 0 01-.91.34 1.25 1.25 0 01-.61-.17 1.09 1.09 0 01-.45-.5 2.76 2.76 0 01-.14-1v-4.21h-1v-.23a2.57 2.57 0 00.77-.51 4.23 4.23 0 00.7-.85 8.67 8.67 0 00.44-.95zM1292.91 364.21c.46-.46.72-.72.81-.79a2.24 2.24 0 01.66-.4 1.8 1.8 0 01.7-.15 1.55 1.55 0 011 .35 1.58 1.58 0 01.57 1 4.66 4.66 0 011.19-1.08 2.13 2.13 0 011-.26 1.6 1.6 0 01.89.26 1.74 1.74 0 01.61.84 3.76 3.76 0 01.15 1.24v2.69a2.39 2.39 0 00.09.81.56.56 0 00.25.26 1.27 1.27 0 00.6.1v.25h-3.09v-.25h.13a1.13 1.13 0 00.63-.15.63.63 0 00.22-.35 4.08 4.08 0 000-.67v-2.69a2.33 2.33 0 00-.18-1.08.94.94 0 00-.86-.44 1.56 1.56 0 00-.73.19 4 4 0 00-.88.67v3.35a2.5 2.5 0 00.07.8.59.59 0 00.27.27 1.58 1.58 0 00.68.1v.25h-3.17v-.25a1.5 1.5 0 00.72-.12.62.62 0 00.27-.37 4.15 4.15 0 000-.68v-2.69a2 2 0 00-.22-1.1 1 1 0 00-.84-.44 1.58 1.58 0 00-.74.2 2.83 2.83 0 00-.87.68v3.35a2.21 2.21 0 00.09.8.53.53 0 00.25.28 1.67 1.67 0 00.68.09v.25h-3.1v-.25a1.38 1.38 0 00.6-.09.57.57 0 00.26-.29 2.29 2.29 0 00.09-.79v-2.39a8.82 8.82 0 00-.06-1.33.53.53 0 00-.15-.31.41.41 0 00-.28-.09 1.32 1.32 0 00-.46.11l-.1-.25 1.89-.77h.29zM1304.09 359.6v8.3a2.11 2.11 0 00.09.78.57.57 0 00.26.29 1.45 1.45 0 00.66.1v.25h-3.1v-.25a1.28 1.28 0 00.58-.09.52.52 0 00.25-.29 2.29 2.29 0 00.09-.79v-5.68a10 10 0 000-1.3.57.57 0 00-.15-.34.4.4 0 00-.27-.09 1.32 1.32 0 00-.45.11l-.12-.24 1.87-.76z" transform="translate(-261.54 -38.74)"/></g><g id="_Group_name_comment-trong-php_" data-name="&lt;Group name=&quot;comment-trong-php&quot;&gt;"><path fill="#fff" stroke="#000" stroke-miterlimit="10" stroke-width="1.5" d="M1009.66 347.52h129.59v24.93h-129.59z"/><path d="M1244 372.28c1.16-.64 1.22-.86.64-2.44a3.55 3.55 0 00-4.41-2.11c-1.11.42-1.65 1.23-1.27 2.28.85 1.88 3.16 3.2 5.04 2.27zM1236.14 365.1c1.16-.64 1.22-.86.64-2.44a3.55 3.55 0 00-4.41-2.11c-1.11.42-1.65 1.23-1.26 2.28.83 1.88 3.13 3.17 5.03 2.27zM1251.85 381c1.16-.64 1.22-.87.64-2.44a3.54 3.54 0 00-4.41-2.11c-1.1.42-1.65 1.23-1.26 2.28.83 1.85 3.18 3.17 5.03 2.27zM1259.25 388.33c1.16-.64 1.22-.86.64-2.44a3.55 3.55 0 00-4.41-2.11c-1.11.42-1.65 1.23-1.26 2.28.83 1.88 3.13 3.2 5.03 2.27zM1267.37 396.54c1.17-.64 1.23-.86.65-2.44a3.56 3.56 0 00-4.42-2.11c-1.1.42-1.64 1.23-1.26 2.28.83 1.88 3.14 3.2 5.03 2.27z" transform="translate(-261.54 -38.74)"/><text font-family="TimesNewRomanPSMT,Times New Roman" font-size="14" transform="translate(1014.55 363.7)">Comment trong php</text></g><g id="_Group_name_6-kieu-du-lieu_" data-name="&lt;Group name=&quot;6-kieu-du-lieu&quot;&gt;"><path fill="#fff" stroke="#000" stroke-miterlimit="10" stroke-width="1.5" d="M1009.66 383.16h129.59v24.93h-129.59z"/><path d="M1267.37 436.6c1.17-.64 1.23-.87.65-2.44a3.55 3.55 0 00-4.42-2.11c-1.1.42-1.64 1.23-1.26 2.28.83 1.88 3.14 3.2 5.03 2.27zM1261.22 426.54c1.16-.65 1.22-.87.64-2.44a3.54 3.54 0 00-4.41-2.11c-1.11.42-1.65 1.22-1.26 2.28.81 1.88 3.13 3.19 5.03 2.27zM1256.14 416.25c1.16-.64 1.22-.87.64-2.44a3.54 3.54 0 00-4.41-2.11c-1.11.42-1.65 1.23-1.27 2.28.83 1.88 3.14 3.2 5.04 2.27zM1250.17 407.2c1.16-.65 1.22-.87.64-2.45a3.55 3.55 0 00-4.41-2.11c-1.1.42-1.65 1.23-1.26 2.28.86 1.88 3.13 3.2 5.03 2.28zM1244 396.54c1.16-.64 1.22-.86.64-2.44a3.55 3.55 0 00-4.41-2.11c-1.11.42-1.65 1.23-1.27 2.28.85 1.88 3.16 3.2 5.04 2.27zM1237.06 390c1.17-.64 1.22-.86.65-2.44a3.56 3.56 0 00-4.42-2.11c-1.1.42-1.64 1.23-1.26 2.28.83 1.92 3.13 3.27 5.03 2.27zM1230 380.32c1.16-.65 1.22-.87.64-2.45a3.56 3.56 0 00-4.41-2.11c-1.1.42-1.65 1.23-1.26 2.28.81 1.88 3.11 3.2 5.03 2.28z" transform="translate(-261.54 -38.74)"/><text font-family="TimesNewRomanPSMT,Times New Roman" font-size="14" transform="translate(1029.86 401.14)"><tspan xml:space="preserve">6 kiểu dữ liệu</tspan></text></g><g id="_Group_name_khai-bao-bien-va-hang-so_" data-name="&lt;Group name=&quot;khai-bao-bien-va-hang-so&quot;&gt;"><path fill="#fff" stroke="#000" stroke-miterlimit="10" stroke-width="1.5" d="M1009.66 418.8h129.59v43.29h-129.59z"/><path d="M1267.37 481.42c1.17-.64 1.23-.87.65-2.44a3.55 3.55 0 00-4.42-2.11c-1.1.42-1.64 1.23-1.26 2.28.83 1.85 3.14 3.2 5.03 2.27zM1261.22 470.62c1.16-.64 1.22-.87.64-2.44a3.54 3.54 0 00-4.41-2.11c-1.11.42-1.65 1.23-1.26 2.28.81 1.88 3.13 3.2 5.03 2.27zM1256.14 457.24c1.16-.64 1.22-.86.64-2.44a3.55 3.55 0 00-4.41-2.11c-1.11.42-1.65 1.23-1.27 2.28.83 1.88 3.14 3.2 5.04 2.27zM1250.17 442.11c1.16-.65 1.22-.87.64-2.45a3.55 3.55 0 00-4.41-2.11c-1.1.42-1.65 1.23-1.26 2.28.86 1.88 3.13 3.17 5.03 2.28zM1244 428c1.16-.65 1.22-.87.64-2.45a3.56 3.56 0 00-4.41-2.11c-1.11.42-1.65 1.23-1.27 2.28.85 1.83 3.16 3.15 5.04 2.28zM1239.22 415c1.16-.65 1.22-.87.64-2.45a3.56 3.56 0 00-4.41-2.11c-1.11.42-1.65 1.23-1.27 2.28.82 1.87 3.14 3.19 5.04 2.28zM1234.42 404.67c1.16-.65 1.22-.87.64-2.45a3.56 3.56 0 00-4.41-2.11c-1.11.42-1.65 1.23-1.27 2.28.83 1.88 3.14 3.2 5.04 2.28zM1229.14 394.35c1.16-.65 1.22-.87.64-2.45a3.56 3.56 0 00-4.41-2.11c-1.11.42-1.65 1.23-1.27 2.28.83 1.93 3.14 3.2 5.04 2.28zM1287.45 469.78l3.42 3.4a6.25 6.25 0 001.43 1.14 3.23 3.23 0 001.19.35v.25h-4.41v-.25a1 1 0 00.58-.14.38.38 0 00.17-.29.6.6 0 00-.07-.3 2.42 2.42 0 00-.42-.48l-3.2-3.17v3a3 3 0 00.09.93.6.6 0 00.28.29 1.29 1.29 0 00.63.17h.31v.25h-4v-.25h.33a1 1 0 00.83-.34 2 2 0 00.17-1.05v-6a3.16 3.16 0 00-.09-.94.68.68 0 00-.28-.28 1.29 1.29 0 00-.63-.17h-.33v-.25h4v.25h-.31a1.4 1.4 0 00-.63.16.56.56 0 00-.29.33 3.31 3.31 0 00-.08.9v2.84l.93-.87a20.48 20.48 0 002.46-2.48.9.9 0 00.18-.48.34.34 0 00-.14-.28.78.78 0 00-.49-.12h-.21v-.25h3.41v.25a2.26 2.26 0 00-.55.09 2.65 2.65 0 00-.6.29 5.57 5.57 0 00-.88.69c-.1.09-.56.56-1.38 1.4zM1295.65 465.2v4.58a5.24 5.24 0 011.21-1.07 1.83 1.83 0 01.89-.24 1.42 1.42 0 01.91.3 1.66 1.66 0 01.57.92 6.38 6.38 0 01.13 1.6v2.21a2.5 2.5 0 00.09.82.6.6 0 00.24.26 1.38 1.38 0 00.6.09v.25h-3.08v-.25h.15a1 1 0 00.6-.13.65.65 0 00.24-.39 4.42 4.42 0 000-.65v-2.21a5.54 5.54 0 00-.1-1.35 1 1 0 00-.34-.48 1 1 0 00-.56-.16 1.58 1.58 0 00-.7.18 3.45 3.45 0 00-.87.72v3.3a2.86 2.86 0 00.07.8.59.59 0 00.27.27 1.58 1.58 0 00.68.1v.25h-3.11v-.25a1.36 1.36 0 00.66-.13.49.49 0 00.22-.26 2.45 2.45 0 00.08-.78v-5.66a10.23 10.23 0 000-1.32.63.63 0 00-.16-.34.43.43 0 00-.28-.09 1.83 1.83 0 00-.47.11l-.09-.24 1.87-.76zM1304.36 474a10.71 10.71 0 01-1.21.86 1.89 1.89 0 01-.78.17 1.42 1.42 0 01-1.07-.44 1.65 1.65 0 01-.42-1.17 1.49 1.49 0 01.2-.8 2.71 2.71 0 011-.87 16 16 0 012.31-1v-.25a2 2 0 00-.3-1.28 1.06 1.06 0 00-.86-.35 1 1 0 00-.68.23.7.7 0 00-.26.54v.39a.69.69 0 01-.16.49.57.57 0 01-.42.17.51.51 0 01-.41-.18.68.68 0 01-.16-.48 1.38 1.38 0 01.6-1.08 2.58 2.58 0 011.69-.5 3 3 0 011.36.28 1.36 1.36 0 01.6.67 3.76 3.76 0 01.12 1.2V473.82c0 .09.06.23.12.27a.24.24 0 00.18.07.3.3 0 00.19-.05 3.52 3.52 0 00.55-.5v.39c-.51.68-1 1-1.46 1a.64.64 0 01-.53-.23 1.29 1.29 0 01-.2-.77zm0-.45v-2.38a11.2 11.2 0 00-1.33.58 2.22 2.22 0 00-.77.63 1.2 1.2 0 00-.24.72 1.14 1.14 0 00.3.81.88.88 0 00.68.33 2.46 2.46 0 001.36-.67zM1309.19 468.47v5a2.58 2.58 0 00.08.79.67.67 0 00.26.29 1.4 1.4 0 00.61.09v.25h-3v-.25a1.37 1.37 0 00.61-.09.52.52 0 00.25-.29 2.29 2.29 0 00.09-.79v-2.41a8.75 8.75 0 00-.06-1.32.53.53 0 00-.15-.3.41.41 0 00-.28-.09 1.32 1.32 0 00-.46.11l-.1-.25 1.89-.77zm-.57-3.27a.68.68 0 01.49.2.7.7 0 01.2.49.68.68 0 01-.2.49.65.65 0 01-.49.21.67.67 0 01-.49-.21.65.65 0 01-.21-.49.7.7 0 01.7-.69zM1316.13 469.74a2.52 2.52 0 012-1.27 2.18 2.18 0 011.68.83 3.3 3.3 0 01.72 2.25 3.48 3.48 0 01-1.11 2.69 3.07 3.07 0 01-3.23.67 5 5 0 01-1.15-.59v-6.49a10.15 10.15 0 000-1.31.57.57 0 00-.17-.34.4.4 0 00-.27-.09 1.47 1.47 0 00-.48.11l-.12-.2 1.88-.76h.3zm0 .44v3.74a2.82 2.82 0 00.73.52 1.83 1.83 0 00.76.17 1.52 1.52 0 001.16-.68 3.23 3.23 0 00.53-2 2.87 2.87 0 00-.53-1.85 1.58 1.58 0 00-1.22-.65 1.62 1.62 0 00-.73.19 3.16 3.16 0 00-.7.56zM1325 474a13.1 13.1 0 01-1.21.86 1.93 1.93 0 01-.79.17 1.43 1.43 0 01-1.07-.44 1.65 1.65 0 01-.42-1.17 1.58 1.58 0 01.2-.8 2.75 2.75 0 011-.87 15 15 0 012.31-1v-.25a2 2 0 00-.3-1.28 1.09 1.09 0 00-.87-.35 1 1 0 00-.68.23.73.73 0 00-.26.54v.39a.69.69 0 01-.16.49.54.54 0 01-.42.17.52.52 0 01-.41-.18.68.68 0 01-.16-.48 1.38 1.38 0 01.6-1.08 2.58 2.58 0 011.69-.5 3.06 3.06 0 011.37.28 1.39 1.39 0 01.59.67 3.76 3.76 0 01.12 1.2v2.13a9.7 9.7 0 000 1.09.43.43 0 00.11.27.24.24 0 00.18.07.29.29 0 00.19-.05 3.92 3.92 0 00.56-.5v.39q-.76 1-1.47 1a.64.64 0 01-.53-.23 1.23 1.23 0 01-.17-.77zm0-.45v-2.38a11.63 11.63 0 00-1.34.58 2.32 2.32 0 00-.77.63 1.26 1.26 0 00-.23.72 1.18 1.18 0 00.29.81.89.89 0 00.68.33 2.48 2.48 0 001.37-.67zm.67-8.15l-2 2.36h-.24l.72-2.36zM1330.69 468.47a2.79 2.79 0 012.29 1.08 3.39 3.39 0 01.73 2.12 4.18 4.18 0 01-.4 1.71 2.9 2.9 0 01-1.12 1.29 2.84 2.84 0 01-1.57.44 2.65 2.65 0 01-2.25-1.13 3.47 3.47 0 01-.7-2.13 3.85 3.85 0 01.42-1.71 2.91 2.91 0 011.13-1.26 2.86 2.86 0 011.47-.41zm-.21.45a1.48 1.48 0 00-.73.21 1.57 1.57 0 00-.59.76 3.65 3.65 0 00-.22 1.39 4.83 4.83 0 00.54 2.35 1.61 1.61 0 001.43 1 1.35 1.35 0 001.1-.55 3.17 3.17 0 00.43-1.88 4.3 4.3 0 00-.72-2.63 1.49 1.49 0 00-1.24-.65zM1339.85 469.74a2.51 2.51 0 012-1.27 2.18 2.18 0 011.68.83 3.3 3.3 0 01.72 2.25 3.48 3.48 0 01-1.11 2.69 3.06 3.06 0 01-2.12.87 3.18 3.18 0 01-1.11-.2 5.24 5.24 0 01-1.15-.59v-6.49a10.15 10.15 0 000-1.31.63.63 0 00-.16-.34.45.45 0 00-.28-.09 1.47 1.47 0 00-.47.11l-.1-.24 1.88-.76h.31zm0 .44v3.74a2.62 2.62 0 00.72.52 1.87 1.87 0 00.76.17 1.51 1.51 0 001.16-.68 3.17 3.17 0 00.54-2 2.81 2.81 0 00-.54-1.85 1.57 1.57 0 00-1.22-.65 1.69 1.69 0 00-.73.19 2.94 2.94 0 00-.69.56zM1347.29 468.47v5a2.21 2.21 0 00.09.79.59.59 0 00.25.29 1.43 1.43 0 00.61.09v.25h-3v-.25a1.43 1.43 0 00.62-.09.61.61 0 00.25-.29 2.29 2.29 0 00.09-.79v-2.41a8.75 8.75 0 00-.06-1.32.7.7 0 00-.15-.3.43.43 0 00-.28-.09 1.37 1.37 0 00-.47.11l-.1-.25 1.89-.77zm-.57-3.27a.7.7 0 01.7.69.65.65 0 01-.21.49.64.64 0 01-.49.21.67.67 0 01-.49-.21.68.68 0 01-.2-.49.66.66 0 01.2-.49.68.68 0 01.49-.2zM1350.07 471a3.18 3.18 0 00.68 2.18 2.07 2.07 0 001.61.8 1.8 1.8 0 001.07-.34 2.57 2.57 0 00.76-1.16l.21.14a3.2 3.2 0 01-.83 1.7 2.24 2.24 0 01-1.73.77 2.51 2.51 0 01-1.93-.88 3.33 3.33 0 01-.81-2.36 3.54 3.54 0 01.83-2.5 2.69 2.69 0 012.07-.9 2.3 2.3 0 011.72.69 2.51 2.51 0 01.68 1.86zm1.27-5.57h1.26l1.3 2.26h-.22l-1.86-1.45-1.57 1.45h-.2zm-1.27 5.17h2.9a2.77 2.77 0 00-.14-.85 1.49 1.49 0 00-.51-.6 1.26 1.26 0 00-.71-.22 1.41 1.41 0 00-1 .44 1.94 1.94 0 00-.54 1.25zm1.51-5.89h-.24l.72-2.29h1.53zM1357.06 469.8a3 3 0 012.1-1.33 1.52 1.52 0 01.88.26 1.71 1.71 0 01.59.84 4 4 0 01.15 1.26v2.67a2.1 2.1 0 00.1.81.52.52 0 00.24.27 1.46 1.46 0 00.62.09v.25h-3.1v-.25h.13a1 1 0 00.61-.13.65.65 0 00.24-.39 3.77 3.77 0 000-.65v-2.56a2.59 2.59 0 00-.22-1.24.8.8 0 00-.75-.39 2.27 2.27 0 00-1.62.89v3.3a2.31 2.31 0 00.08.79.62.62 0 00.26.29 1.67 1.67 0 00.68.09v.25H1355v-.25h.14a.72.72 0 00.64-.24 1.69 1.69 0 00.17-.93v-2.32a9.15 9.15 0 000-1.37.57.57 0 00-.16-.34.41.41 0 00-.28-.09 1.32 1.32 0 00-.46.11l-.1-.25 1.89-.77h.29zM1365.41 468.66h2.95v.25h-.19a.58.58 0 00-.41.13.47.47 0 00-.14.35 1.42 1.42 0 00.15.57l1.45 3.46 1.46-3.59a1.64 1.64 0 00.16-.58.25.25 0 000-.16.37.37 0 00-.19-.14 1.69 1.69 0 00-.48 0v-.25h2.05v.25a1 1 0 00-.49.14 1.71 1.71 0 00-.43.69l-2.23 5.37h-.28l-2.23-5.28a1.88 1.88 0 00-.29-.53 1.06 1.06 0 00-.35-.27 1.89 1.89 0 00-.46-.12zM1376.28 474a10.71 10.71 0 01-1.21.86 1.85 1.85 0 01-.78.17 1.42 1.42 0 01-1.07-.44 1.65 1.65 0 01-.42-1.17 1.58 1.58 0 01.2-.8 2.66 2.66 0 011-.87 15.25 15.25 0 012.3-1v-.25a2.09 2.09 0 00-.29-1.28 1.09 1.09 0 00-.87-.35 1 1 0 00-.68.23.7.7 0 00-.26.54v.39a.69.69 0 01-.16.49.57.57 0 01-.42.17.51.51 0 01-.41-.18.68.68 0 01-.16-.48 1.38 1.38 0 01.6-1.08 2.58 2.58 0 011.69-.5 3 3 0 011.36.28 1.36 1.36 0 01.6.67 3.76 3.76 0 01.12 1.2v2.13a7.63 7.63 0 000 1.09.43.43 0 00.11.27.24.24 0 00.18.07.3.3 0 00.19-.05 3.52 3.52 0 00.55-.5v.39c-.51.68-1 1-1.46 1a.64.64 0 01-.53-.23 1.29 1.29 0 01-.18-.77zm0-.45v-2.38a11.2 11.2 0 00-1.33.58 2.22 2.22 0 00-.77.63 1.19 1.19 0 00-.23.72 1.14 1.14 0 00.29.81.89.89 0 00.68.33 2.46 2.46 0 001.36-.67zm-2.2-8.15h1.52l.72 2.36h-.24z" transform="translate(-261.54 -38.74)"/><text font-family="TimesNewRomanPSMT,Times New Roman" font-size="14" transform="translate(1049.06 452.02)">hằng số</text></g><g id="_Group_name_GET-method_" data-name="&lt;Group name=&quot;GET-method&quot;&gt;"><path fill="#fff" stroke="#000" stroke-miterlimit="10" stroke-width="1.5" d="M1006.84 481.9h129.59v24.93h-129.59z"/><path d="M1231.83 534.75c1-.91 1-1.14 0-2.52a3.55 3.55 0 00-4.8-.94 1.7 1.7 0 00-.65 2.52c1.29 1.62 3.84 2.31 5.45.94zM1244.34 534.71c1-.93 1-1.16 0-2.53a3.56 3.56 0 00-4.82-.85 1.72 1.72 0 00-.61 2.54c1.28 1.58 3.85 2.24 5.43.84zM1256.69 534.67c.93-.95.92-1.18-.08-2.53a3.55 3.55 0 00-4.83-.77 1.7 1.7 0 00-.56 2.54c1.33 1.57 3.91 2.18 5.47.76zM1266.24 534.73c1-.92 1-1.15 0-2.52a3.53 3.53 0 00-4.8-.9 1.7 1.7 0 00-.63 2.53c1.27 1.6 3.84 2.28 5.43.89z" transform="translate(-261.54 -38.74)"/><text font-family="TimesNewRomanPSMT,Times New Roman" font-size="14" transform="translate(1034.18 501.26)">GE <tspan x="18.66" y="0" letter-spacing="-.018em">T</tspan> <tspan x="26.96" y="0" xml:space="preserve"> method</tspan></text></g><g id="_Group_name_POST-method_" data-name="&lt;Group name=&quot;POST-method&quot;&gt;"><path fill="#fff" stroke="#000" stroke-miterlimit="10" stroke-width="1.5" d="M1006.84 516.36h129.59v24.93h-129.59z"/><path d="M1231.89 566.59c.93-1 .92-1.18-.08-2.52a3.55 3.55 0 00-4.84-.75 1.71 1.71 0 00-.55 2.54c1.34 1.57 3.92 2.14 5.47.73zM1244.26 566.77c1-.89 1-1.12.09-2.53a3.56 3.56 0 00-4.77-1.08c-1 .66-1.34 1.56-.73 2.5 1.23 1.65 3.76 2.43 5.41 1.11zM1256.72 566.54c.91-1 .9-1.2-.14-2.52a3.54 3.54 0 00-4.84-.66c-.92.75-1.19 1.68-.5 2.56 1.37 1.54 3.96 2.08 5.48.62zM1266.12 566.84c1-.85 1-1.08.17-2.52a3.55 3.55 0 00-4.73-1.23c-1 .63-1.39 1.52-.81 2.48 1.18 1.69 3.69 2.54 5.37 1.27z" transform="translate(-261.54 -38.74)"/><text font-family="TimesNewRomanPSMT,Times New Roman" font-size="14" transform="translate(1029.86 532.18)">POS <tspan x="25.68" y="0" letter-spacing="-.018em">T</tspan> <tspan x="33.98" y="0" xml:space="preserve"> method</tspan></text></g><g id="_Group_name_loi-ich_" data-name="&lt;Group name=&quot;loi-ich&quot;&gt;"><path fill="#fff" stroke="#000" stroke-miterlimit="10" stroke-width="1.5" d="M780.67 627.07h77.04V652h-77.04z"/><path d="M1102.62 661.58c0 1.33.15 1.49 1.8 1.77a3.57 3.57 0 004-2.79c.18-1.17-.25-2-1.36-2.23-2.06-.21-4.31 1.14-4.44 3.25zM1111.39 654.45c0 1.33.15 1.49 1.8 1.77a3.56 3.56 0 004-2.79c.18-1.17-.25-2-1.35-2.23-2.03-.2-4.31 1.14-4.45 3.25zM1121.75 648.32c.16 1.32.35 1.45 2 1.5a3.55 3.55 0 003.59-3.31c0-1.18-.53-2-1.65-2-2.02.05-4.1 1.7-3.94 3.81z" transform="translate(-261.54 -38.74)"/><text font-family="TimesNewRomanPSMT,Times New Roman" font-size="14" transform="translate(800.11 642.78)">Lợi ích</text></g><g id="_Group_name_cau-truc_" data-name="&lt;Group name=&quot;cau-truc&quot;&gt;"><path fill="#fff" stroke="#000" stroke-miterlimit="10" stroke-width="1.5" d="M912.38 627.07h88.92V652h-88.92z"/><path d="M1186 663.25c1.33 0 1.48-.18 1.72-1.85a3.56 3.56 0 00-2.88-3.95c-1.17-.15-2 .3-2.19 1.41-.15 2.05 1.25 4.3 3.35 4.39zM1177.17 656.78c1.32.12 1.5 0 1.9-1.66a3.55 3.55 0 00-2.46-4.23c-1.15-.27-2 .09-2.32 1.18-.38 2.02.79 4.41 2.88 4.71zM1169.76 649.42c1.28.38 1.48.26 2.2-1.25a3.57 3.57 0 00-1.6-4.63 1.7 1.7 0 00-2.51.71c-.76 1.91-.08 4.47 1.91 5.17z" transform="translate(-261.54 -38.74)"/><text font-family="TimesNewRomanPSMT,Times New Roman" font-size="14" transform="translate(930.38 644.24)"><tspan xml:space="preserve">Cấu trúc</tspan></text></g><g id="_Group_name_model_" data-name="&lt;Group name=&quot;model&quot;&gt;"><path fill="#fff" stroke="#000" stroke-miterlimit="10" stroke-width="1.5" d="M859.46 671.62h61.92v24.93h-61.92z"/><path d="M1171.26 705.84c.34 1.29.54 1.4 2.21 1.24a3.56 3.56 0 003.15-3.75c-.14-1.17-.78-1.9-1.9-1.79-2.02.34-3.88 2.23-3.46 4.3zM1178.34 697.32c.18 1.32.37 1.45 2.05 1.47a3.55 3.55 0 003.54-3.37c0-1.19-.56-2-1.68-2-2.05.11-4.1 1.8-3.91 3.9z" transform="translate(-261.54 -38.74)"/><text font-family="TimesNewRomanPSMT,Times New Roman" font-size="14" transform="translate(871.7 688.63)">Model</text></g><g id="_Group_name_view_" data-name="&lt;Group name=&quot;view&quot;&gt;"><path fill="#fff" stroke="#000" stroke-miterlimit="10" stroke-width="1.5" d="M933.44 671.62h50.76v24.93h-50.76z"/><path d="M1216.44 707.93c.76 1.09 1 1.12 2.5.39a3.56 3.56 0 001.65-4.61 1.71 1.71 0 00-2.4-1c-1.78 1-2.86 3.42-1.75 5.22zM1216.93 698.82c1 .92 1.18.91 2.52-.11a3.55 3.55 0 00.71-4.84 1.7 1.7 0 00-2.55-.53c-1.55 1.35-2.13 3.94-.68 5.48z" transform="translate(-261.54 -38.74)"/><text font-family="TimesNewRomanPSMT,Times New Roman" font-size="14" transform="translate(945.14 688.63)"><tspan letter-spacing="-.06em">V</tspan> <tspan x="9.27" y="0">iew</tspan></text></g><g id="_Group_name_controller_" data-name="&lt;Group name=&quot;controller&quot;&gt;"><path fill="#fff" stroke="#000" stroke-miterlimit="10" stroke-width="1.5" d="M1001.3 671.62h70.92v24.93h-70.92z"/><path d="M1258.72 698.93c1.33 0 1.49-.18 1.73-1.84a3.55 3.55 0 00-2.89-4c-1.17-.16-2 .29-2.19 1.4-.16 2.1 1.24 4.36 3.35 4.44zM1265 707.25c1.33 0 1.49-.19 1.73-1.85a3.56 3.56 0 00-2.89-3.95c-1.17-.15-2 .3-2.19 1.41-.14 2.05 1.26 4.3 3.35 4.39z" transform="translate(-261.54 -38.74)"/><text font-family="TimesNewRomanPSMT,Times New Roman" font-size="14" transform="translate(1006.16 688.4)">Controller</text></g><g id="_Group_name_mo-hinh-mvc_" data-name="&lt;Group name=&quot;mo-hinh-mvc&quot;&gt;"><path fill="#fff" stroke="#000" stroke-miterlimit="10" stroke-width="1.5" d="M819.19 573.34h141.48v29.7H819.19z"/><path d="M1052.48 551c1.24.48 1.45.38 2.28-1.08a3.54 3.54 0 00-1.22-4.73 1.71 1.71 0 00-2.56.5c-.9 1.88-.43 4.49 1.5 5.31zM1055.66 561.15c1.26.43 1.46.32 2.25-1.16a3.56 3.56 0 00-1.39-4.69 1.71 1.71 0 00-2.54.59c-.84 1.87-.28 4.47 1.68 5.26zM1059.49 573.84c1.18.61 1.4.53 2.38-.83a3.56 3.56 0 00-.72-4.84 1.7 1.7 0 00-2.59.23c-1.1 1.74-.9 4.39.93 5.44zM1064.63 585.58c1.28.36 1.48.25 2.18-1.28a3.55 3.55 0 00-1.62-4.61 1.71 1.71 0 00-2.51.72c-.74 1.92-.05 4.48 1.95 5.17zM1070.7 598.71c1.27.4 1.47.29 2.22-1.21a3.55 3.55 0 00-1.5-4.66 1.71 1.71 0 00-2.52.65c-.8 1.9-.17 4.51 1.8 5.22zM1076.09 609.14c1.31.18 1.49 0 2-1.57a3.55 3.55 0 00-2.28-4.33c-1.14-.32-2 0-2.37 1.08-.44 2 .56 4.43 2.65 4.82zM1046.51 540.26c1.27.4 1.47.29 2.21-1.22a3.55 3.55 0 00-1.51-4.65 1.72 1.72 0 00-2.53.66c-.78 1.95-.15 4.48 1.83 5.21zM1041.41 526.89c1.26.4 1.46.29 2.22-1.21a3.56 3.56 0 00-1.48-4.66 1.71 1.71 0 00-2.53.64c-.8 1.89-.19 4.47 1.79 5.23zM1035.93 511.75c1.31.19 1.5.05 2-1.55a3.55 3.55 0 00-2.22-4.36 1.71 1.71 0 00-2.39 1c-.48 2.04.54 4.48 2.61 4.91zM1029.46 497.6c1.29.33 1.48.21 2.15-1.34a3.55 3.55 0 00-1.75-4.56 1.71 1.71 0 00-2.49.78c-.69 1.94.08 4.52 2.09 5.12zM1024.82 484.63c1.3.27 1.49.14 2.07-1.43a3.55 3.55 0 00-2-4.48 1.71 1.71 0 00-2.44.92c-.57 1.97.32 4.46 2.37 4.99zM1019.85 474.31c1.29.34 1.48.22 2.15-1.32a3.55 3.55 0 00-1.73-4.57 1.71 1.71 0 00-2.49.78c-.7 1.93.06 4.47 2.07 5.11zM1014 463.93c1.2.57 1.41.49 2.36-.9a3.55 3.55 0 00-.85-4.82 1.72 1.72 0 00-2.59.3c-1.03 1.77-.77 4.41 1.08 5.42z" transform="translate(-261.54 -38.74)"/><text font-family="TimesNewRomanPSMT,Times New Roman" font-size="18" transform="translate(834.26 595.3)"><tspan xml:space="preserve">Mô hình MVC</tspan></text></g><g id="_Group_name_cach-lay-du-lieu-tu-request_" data-name="&lt;Group name=&quot;cach-lay-du-lieu-tu-request&quot;&gt;"><path fill="#fff" stroke="#000" stroke-miterlimit="10" stroke-width="1.5" d="M819.19 481.9h141.48v59.4H819.19z"/><path d="M1075.64 500.58c1.32-.15 1.46-.33 1.53-2a3.55 3.55 0 00-3.27-3.64c-1.18 0-2 .5-2 1.62.01 2.05 1.63 4.15 3.74 4.02zM1086.21 510.62c1.33 0 1.49-.15 1.78-1.8a3.54 3.54 0 00-2.77-4c-1.17-.19-2 .24-2.23 1.34-.22 2.02 1.12 4.31 3.22 4.46zM1096.66 519.77c1.33 0 1.48-.22 1.67-1.89a3.55 3.55 0 00-3-3.87c-1.18-.12-2 .36-2.16 1.47-.09 2.05 1.38 4.27 3.49 4.29zM1066.55 490.2c1.32 0 1.48-.16 1.74-1.82a3.56 3.56 0 00-2.84-4c-1.17-.16-2 .28-2.2 1.39-.19 2.05 1.19 4.32 3.3 4.43zM1056.93 478.88c1.33-.11 1.47-.29 1.59-2a3.56 3.56 0 00-3.17-3.73c-1.18-.06-2 .45-2.08 1.57-.01 2.08 1.55 4.28 3.66 4.16zM1047.85 467.07c1.31-.19 1.45-.37 1.47-2.05a3.55 3.55 0 00-3.35-3.56c-1.19 0-2 .56-2 1.68.1 2.05 1.77 4.11 3.88 3.93zM1038.69 457.3c1.33.06 1.49-.1 1.82-1.75a3.55 3.55 0 00-2.67-4.1c-1.16-.22-2 .19-2.26 1.29-.27 2.03 1 4.36 3.11 4.56zM1031.27 448.45c1.33.05 1.5-.11 1.81-1.76a3.56 3.56 0 00-2.69-4.09c-1.16-.2-2.05.21-2.26 1.31-.25 2.09 1.04 4.35 3.14 4.54zM1021.79 438.1c1.33 0 1.49-.17 1.74-1.83a3.55 3.55 0 00-2.85-4c-1.18-.16-2 .28-2.21 1.39-.17 2.08 1.21 4.34 3.32 4.44zM1015.54 431.88c1.32-.07 1.47-.24 1.64-1.91a3.55 3.55 0 00-3-3.83c-1.17-.1-2 .39-2.13 1.5-.12 2.06 1.37 4.25 3.49 4.24z" transform="translate(-261.54 -38.74)"/><text font-family="TimesNewRomanPSMT,Times New Roman" font-size="18" transform="translate(827.06 503.5)"><tspan xml:space="preserve">Cách lấy dữ liệu</tspan></text><text font-family="TimesNewRomanPSMT,Times New Roman" font-size="18" transform="translate(851.9 528.83)">từ request</text></g><g id="_Group_name_php-co-ban_" data-name="&lt;Group name=&quot;php-co-ban&quot;&gt;"><path fill="#fff" stroke="#000" stroke-miterlimit="10" stroke-width="1.5" d="M819.19 298.7h141.48v59.4H819.19z"/><path d="M1017.66 400.4c.6-1.19.52-1.4-.85-2.38a3.55 3.55 0 00-4.83.76 1.69 1.69 0 00.25 2.59c1.77 1.08 4.39.87 5.43-.97zM1029.26 395.4c.38-1.28.27-1.48-1.25-2.2a3.55 3.55 0 00-4.63 1.57 1.71 1.71 0 00.69 2.51c1.93.77 4.48.1 5.19-1.88zM1040.76 391.5c.48-1.24.39-1.45-1.07-2.29a3.54 3.54 0 00-4.74 1.19 1.71 1.71 0 00.49 2.56c1.84.92 4.45.46 5.32-1.46zM1052.41 385.63c.44-1.26.33-1.46-1.15-2.25a3.55 3.55 0 00-4.69 1.37 1.71 1.71 0 00.58 2.54c1.85.85 4.47.29 5.26-1.66zM1065.76 379.91c.33-1.29.21-1.48-1.34-2.14a3.57 3.57 0 00-4.56 1.78c-.44 1.1-.23 2 .81 2.48 1.94.68 4.47-.1 5.09-2.12zM1078.19 374.4c.43-1.26.33-1.46-1.16-2.24a3.54 3.54 0 00-4.69 1.39 1.72 1.72 0 00.6 2.54c1.87.83 4.46.27 5.25-1.69z" transform="translate(-261.54 -38.74)"/><text font-family="TimesNewRomanPSMT,Times New Roman" font-size="18" transform="translate(846.86 335.38)">PH <tspan x="23.01" y="0" letter-spacing="-.037em">P</tspan> <tspan x="32.35" y="0" xml:space="preserve"> cơ bản</tspan></text></g><g id="_Group_name_cac-build-in-function_" data-name="&lt;Group name=&quot;cac-build-in-function&quot;&gt;"><path d="M608.55 400.73c-1 .9-1 1.13-.06 2.53a3.55 3.55 0 004.78 1 1.71 1.71 0 00.7-2.51c-1.24-1.6-3.78-2.35-5.42-1.02zM618 400.73c-1 .9-1 1.13-.07 2.53a3.55 3.55 0 004.78 1 1.71 1.71 0 00.71-2.51c-1.25-1.6-3.8-2.35-5.42-1.02zM595.8 401c-.9 1-.89 1.2.15 2.52a3.55 3.55 0 004.85.63 1.71 1.71 0 00.49-2.56c-1.38-1.59-3.98-2.11-5.49-.59zM583.2 400.82c-1 .92-1 1.15 0 2.52a3.55 3.55 0 004.81.88 1.72 1.72 0 00.62-2.53c-1.27-1.6-3.84-2.26-5.43-.87zM559.2 400.82c-1 .93-1 1.16 0 2.52a3.55 3.55 0 004.81.88 1.72 1.72 0 00.62-2.53c-1.27-1.6-3.84-2.26-5.43-.87zM569.31 400.75c-1 .9-1 1.13 0 2.52a3.55 3.55 0 004.78 1 1.71 1.71 0 00.69-2.52c-1.29-1.61-3.84-2.35-5.47-1z" transform="translate(-261.54 -38.74)"/><path fill="#fff" stroke="#000" stroke-miterlimit="10" d="M165.74 344.68h128.89v28.34H165.74z"/><text font-family="TimesNewRomanPSMT,Times New Roman" font-size="14" transform="translate(168.81 363.69)">Các build-in function</text></g><g id="_Group_name_cac-bieu-thuc-dieu-kien_" data-name="&lt;Group name=&quot;cac-bieu-thuc-dieu-kien&quot;&gt;"><path d="M596.47 439.05c-.58 1.19-.5 1.41.87 2.37a3.56 3.56 0 004.83-.8 1.71 1.71 0 00-.27-2.59c-1.76-1.03-4.4-.83-5.43 1.02zM605.78 436.35c-.46 1.25-.36 1.46 1.11 2.27a3.54 3.54 0 004.72-1.29 1.71 1.71 0 00-.54-2.55c-1.86-.88-4.46-.37-5.29 1.57zM616.39 433.69c-.57 1.2-.49 1.41.9 2.36a3.56 3.56 0 004.82-.86 1.71 1.71 0 00-.31-2.59c-1.8-1.04-4.4-.77-5.41 1.09zM583.87 442.7c-.64 1.16-.57 1.38.75 2.41a3.54 3.54 0 004.86-.55 1.7 1.7 0 00-.13-2.6c-1.7-1.15-4.35-1.05-5.48.74zM570.81 445.92c-.6 1.19-.52 1.41.85 2.38a3.54 3.54 0 004.83-.74 1.71 1.71 0 00-.24-2.59c-1.75-1.09-4.39-.88-5.44.95zM560.71 450.49c-.68 1.14-.62 1.36.68 2.43a3.54 3.54 0 004.87-.4c.74-.92.81-1.89-.06-2.6-1.66-1.21-4.31-1.19-5.49.57z" transform="translate(-261.54 -38.74)"/><path fill="#fff" stroke="#000" stroke-miterlimit="10" d="M112.82 398.48h181.81v28.34H112.82z"/><text font-family="TimesNewRomanPSMT,Times New Roman" font-size="18" transform="translate(117.86 418.18)">Các biểu thức điều kiện</text></g><g id="_Group_name_duyet-dieu-kien_" data-name="&lt;Group name=&quot;duyet-dieu-kien&quot;&gt;"><path d="M594.47 493.72c-.06 1.33.1 1.49 1.75 1.82a3.55 3.55 0 004.1-2.66c.22-1.17-.19-2.05-1.29-2.27-2.03-.27-4.36 1.01-4.56 3.11zM602.89 485.87c0 1.33.18 1.49 1.85 1.73a3.55 3.55 0 004-2.88c.16-1.17-.3-2-1.4-2.19-2.1-.17-4.34 1.23-4.45 3.34zM613.1 476.71c0 1.32.12 1.49 1.77 1.8a3.55 3.55 0 004.07-2.71c.2-1.17-.21-2.05-1.31-2.25-2.04-.25-4.35 1.05-4.53 3.16zM620.73 466.6c-.17 1.31 0 1.49 1.59 2a3.56 3.56 0 004.32-2.3c.31-1.14 0-2.05-1.09-2.37-2.01-.48-4.43.59-4.82 2.67zM638.51 445.49c-.07 1.33.09 1.49 1.73 1.84a3.56 3.56 0 004.13-2.63c.22-1.16-.17-2.05-1.27-2.28-2.03-.29-4.37.97-4.59 3.07zM631.84 454.5c0 1.33.18 1.48 1.84 1.73a3.55 3.55 0 004-2.87c.16-1.17-.29-2-1.4-2.2-2.09-.16-4.34 1.23-4.44 3.34zM583.63 502.45c0 1.33.12 1.49 1.77 1.81a3.55 3.55 0 004.07-2.7c.21-1.17-.2-2.05-1.3-2.26-2.04-.25-4.36 1.05-4.54 3.15zM572.09 510.32c-.06 1.32.1 1.49 1.75 1.82a3.57 3.57 0 004.1-2.67c.21-1.17-.19-2.05-1.29-2.27-2.04-.27-4.36 1.01-4.56 3.12zM560.23 518.14c-.41 1.26-.3 1.46 1.2 2.22a3.55 3.55 0 004.67-1.46 1.71 1.71 0 00-.64-2.53c-1.89-.81-4.46-.2-5.23 1.77z" transform="translate(-261.54 -38.74)"/><path fill="#fff" stroke="#000" stroke-miterlimit="10" d="M135.14 465.47h159.49v28.34H135.14z"/><text font-family="TimesNewRomanPSMT,Times New Roman" font-size="18" transform="translate(154.58 486.33)">Duyệt điều kiện</text></g><g id="_Group_name_if-else_" data-name="&lt;Group name=&quot;if-else&quot;&gt;"><path d="M365.31 438.57c-1.21.56-1.29.78-.83 2.39a3.55 3.55 0 004.25 2.43c1.13-.34 1.73-1.1 1.43-2.18-.69-1.94-2.89-3.42-4.85-2.64zM351.57 435.32c-1.07.79-1.1 1-.32 2.5a3.56 3.56 0 004.65 1.53 1.71 1.71 0 001-2.43c-1.11-1.75-3.57-2.76-5.33-1.6zM340.2 432.63c-1.15.66-1.2.88-.6 2.45a3.56 3.56 0 004.45 2c1.09-.44 1.62-1.26 1.22-2.3-.86-1.78-3.18-3.11-5.07-2.15zM320.37 428.85c-1.12.72-1.16.95-.48 2.48a3.55 3.55 0 004.54 1.81c1.08-.5 1.57-1.34 1.11-2.36-.96-1.78-3.34-2.98-5.17-1.93zM330.26 431.26c-1.13.71-1.17.93-.51 2.48a3.56 3.56 0 004.52 1.87c1.08-.48 1.58-1.32 1.14-2.34-.93-1.84-3.3-3.03-5.15-2.01z" transform="translate(-261.54 -38.74)"/><path fill="#fff" stroke="#000" stroke-miterlimit="10" d="M.5 377.14h55.44v24.22H.5z"/><text font-family="TimesNewRomanPSMT,Times New Roman" font-size="14" transform="translate(10.22 394.68)">if else</text></g><g id="_Group_name_switch_" data-name="&lt;Group name=&quot;switch&quot;&gt;"><path d="M364.15 459.25c-.37 1.28-.26 1.48 1.27 2.19a3.54 3.54 0 004.61-1.61 1.7 1.7 0 00-.7-2.5c-1.92-.76-4.48-.07-5.18 1.92zM354 461.06c-.64 1.16-.57 1.38.77 2.4a3.54 3.54 0 004.85-.58 1.7 1.7 0 00-.15-2.6c-1.71-1.14-4.36-1.02-5.47.78zM343.12 463.24c-.74 1.1-.69 1.32.54 2.46a3.56 3.56 0 004.89-.12 1.71 1.71 0 00.08-2.61c-1.63-1.3-4.24-1.42-5.51.27zM332.74 465c-.58 1.19-.5 1.41.89 2.36a3.56 3.56 0 004.82-.83c.65-1 .63-2-.29-2.59-1.77-1.09-4.41-.83-5.42 1.06zM322.12 466.13c-.56 1.21-.48 1.42.92 2.36a3.56 3.56 0 004.81-.89 1.72 1.72 0 00-.32-2.59c-1.78-1.01-4.42-.74-5.41 1.12z" transform="translate(-261.54 -38.74)"/><path fill="#fff" stroke="#000" stroke-miterlimit="10" d="M.5 416.02h55.44v21.6H.5z"/><text font-family="TimesNewRomanPSMT,Times New Roman" font-size="14" transform="translate(10.22 431.14)">switch</text></g><g id="_Group_name_lam-viec-voi-database_" data-name="&lt;Group name=&quot;lam-viec-voi-database&quot;&gt;"><path d="M773.27 481.37c0 1.33.12 1.5 1.77 1.81a3.55 3.55 0 004.08-2.7c.2-1.16-.21-2-1.31-2.25-2.04-.23-4.35 1.04-4.54 3.14z" transform="translate(-261.54 -38.74)"/><path fill="#fff" stroke="#000" stroke-miterlimit="10" stroke-width="1.5" d="M365.13 517.31h141.48v59.4H365.13z"/><path d="M784.11 472.64c-.05 1.33.1 1.5 1.75 1.83a3.56 3.56 0 004.1-2.67c.22-1.16-.19-2.05-1.29-2.27-2.03-.27-4.36 1.01-4.56 3.11zM792.53 464.8c0 1.33.19 1.48 1.85 1.72a3.53 3.53 0 004-2.87c.16-1.17-.29-2-1.4-2.2-2.1-.16-4.36 1.24-4.45 3.35zM802.74 455.63c0 1.33.12 1.49 1.77 1.8a3.55 3.55 0 004.07-2.71c.21-1.16-.21-2-1.31-2.25-2.04-.25-4.35 1.05-4.53 3.16zM761.73 489.24c-.05 1.33.1 1.49 1.75 1.82a3.55 3.55 0 004.1-2.67c.21-1.16-.19-2.05-1.29-2.26-2.04-.27-4.36 1.01-4.56 3.11zM749.88 497.06c-.42 1.26-.31 1.47 1.19 2.23a3.57 3.57 0 004.67-1.47 1.72 1.72 0 00-.63-2.53c-1.89-.81-4.48-.2-5.23 1.77zM740.12 504.08c-.41 1.27-.3 1.47 1.2 2.23a3.57 3.57 0 004.67-1.47 1.71 1.71 0 00-.64-2.53c-1.89-.81-4.47-.2-5.23 1.77zM732.38 510.2c-.41 1.27-.3 1.47 1.2 2.23a3.57 3.57 0 004.67-1.47 1.71 1.71 0 00-.64-2.53c-1.89-.81-4.47-.2-5.23 1.77zM723 517.22c-.41 1.27-.3 1.47 1.2 2.23a3.57 3.57 0 004.67-1.47 1.71 1.71 0 00-.64-2.53c-1.87-.81-4.45-.2-5.23 1.77zM712.94 523.4c-.41 1.27-.3 1.47 1.2 2.23a3.57 3.57 0 004.67-1.47 1.71 1.71 0 00-.64-2.53c-1.89-.81-4.47-.2-5.23 1.77zM703.76 530.78c-.41 1.27-.3 1.47 1.2 2.23a3.57 3.57 0 004.67-1.47A1.71 1.71 0 00709 529c-1.9-.8-4.48-.19-5.24 1.78zM693.08 539.8c-.43 1.28-.32 1.48 1.2 2.23a3.72 3.72 0 004.78-1.53c.54-1.07.4-2-.62-2.54-1.92-.79-4.56-.15-5.36 1.84zM680.84 548.08c-.43 1.28-.32 1.48 1.2 2.23a3.72 3.72 0 004.78-1.53c.54-1.07.4-2-.62-2.54-1.92-.79-4.56-.15-5.36 1.84z" transform="translate(-261.54 -38.74)"/><text font-family="TimesNewRomanPSMT,Times New Roman" font-size="18" transform="translate(391.46 540.22)">Làm việc với</text><text font-family="TimesNewRomanPSMT,Times New Roman" font-size="18" transform="translate(399.02 563.26)">database</text></g><g id="_Group_name_phpmyadmin_" data-name="&lt;Group name=&quot;phpmyadmin&quot;&gt;"><g id="_Group_name_" data-name="&lt;Group name=&quot;&quot;&gt;"><path d="M560.23 570.69c-.41 1.26-.3 1.47 1.2 2.22a3.55 3.55 0 004.67-1.46 1.71 1.71 0 00-.64-2.53c-1.89-.81-4.46-.2-5.23 1.77zM575 570.69c-.41 1.26-.3 1.47 1.2 2.22a3.54 3.54 0 004.66-1.46 1.71 1.71 0 00-.63-2.53c-1.87-.81-4.45-.2-5.23 1.77zM589.73 569.69c-.41 1.26-.3 1.47 1.2 2.23a3.55 3.55 0 004.66-1.47 1.71 1.71 0 00-.63-2.53c-1.89-.81-4.47-.2-5.23 1.77zM603.77 569.69c-.41 1.26-.31 1.47 1.19 2.23a3.57 3.57 0 004.67-1.47 1.71 1.71 0 00-.63-2.53c-1.89-.81-4.48-.2-5.23 1.77zM615.32 569.69c-.41 1.26-.3 1.47 1.2 2.23a3.57 3.57 0 004.67-1.47 1.71 1.71 0 00-.64-2.53c-1.89-.81-4.47-.2-5.23 1.77z" transform="translate(-261.54 -38.74)"/><path fill="#fff" stroke="#000" stroke-miterlimit="10" d="M135.14 518.01h159.49v28.34H135.14z"/></g><text font-family="TimesNewRomanPSMT,Times New Roman" font-size="18" transform="translate(154.22 534.82)">Phpmyadmin</text></g><g id="_Group_name_foreach_" data-name="&lt;Group name=&quot;foreach&quot;&gt;"><path d="M388 517.8c-1 .89-1 1.12-.06 2.52a3.55 3.55 0 004.78 1 1.7 1.7 0 00.7-2.51c-1.29-1.59-3.83-2.35-5.42-1.01zM375.2 518c-.9 1-.89 1.21.16 2.53a3.55 3.55 0 004.85.62 1.71 1.71 0 00.48-2.56c-1.37-1.52-3.97-2.05-5.49-.59zM362.61 517.88c-1 .93-.95 1.16 0 2.53a3.55 3.55 0 004.81.88 1.71 1.71 0 00.62-2.53c-1.28-1.6-3.84-2.27-5.43-.88zM348.71 517.81c-1 .9-1 1.13 0 2.53a3.56 3.56 0 004.79 1 1.71 1.71 0 00.69-2.51c-1.3-1.62-3.85-2.36-5.48-1.02z" transform="translate(-261.54 -38.74)"/><path fill="#fff" stroke="#000" stroke-miterlimit="10" d="M28.22 469.66h54.6v20.88h-54.6z"/><text font-family="TimesNewRomanPSMT,Times New Roman" font-size="14" transform="translate(32.54 484.89)">foreach</text></g><g id="_Group_name_login_" data-name="&lt;Group name=&quot;login&quot;&gt;"><path d="M384.26 558.8c-1 .9-1 1.13-.06 2.53a3.55 3.55 0 004.78 1 1.71 1.71 0 00.7-2.51c-1.24-1.6-3.78-2.35-5.42-1.02zM371.51 559c-.9 1-.89 1.2.15 2.52a3.55 3.55 0 004.85.63 1.71 1.71 0 00.49-2.56c-1.38-1.51-4-2.04-5.49-.59zM358.91 558.89c-1 .92-1 1.15 0 2.52a3.55 3.55 0 004.81.88 1.72 1.72 0 00.62-2.53c-1.27-1.6-3.84-2.26-5.43-.87zM345 558.82c-1 .9-1 1.13 0 2.52a3.55 3.55 0 004.78 1 1.71 1.71 0 00.69-2.52c-1.27-1.61-3.82-2.35-5.47-1zM335.84 558.82c-1 .9-1 1.13 0 2.52a3.56 3.56 0 004.79 1 1.72 1.72 0 00.69-2.52c-1.32-1.61-3.85-2.35-5.48-1z" transform="translate(-261.54 -38.74)"/><path fill="#fff" stroke="#000" stroke-miterlimit="10" d="M15.42 505.66h55.44v21.6H15.42z"/><text font-family="TimesNewRomanPSMT,Times New Roman" font-size="14" transform="translate(23.18 519.7)">Login</text></g><g id="_Group_name_logout_" data-name="&lt;Group name=&quot;logout&quot;&gt;"><path d="M385.07 574.25c-1 .89-1 1.12-.06 2.52a3.55 3.55 0 004.78 1 1.71 1.71 0 00.7-2.51c-1.24-1.6-3.78-2.35-5.42-1.01zM372.32 574.46c-.9 1-.89 1.21.15 2.52a3.55 3.55 0 004.85.63c.92-.75 1.19-1.68.49-2.56-1.38-1.53-3.97-2.05-5.49-.59zM359.73 574.33c-1 .93-1 1.16 0 2.53a3.54 3.54 0 004.81.87 1.71 1.71 0 00.62-2.53c-1.28-1.59-3.85-2.26-5.43-.87zM345.83 574.26c-1 .9-1 1.13-.05 2.53a3.55 3.55 0 004.78 1 1.7 1.7 0 00.7-2.51c-1.26-1.63-3.8-2.37-5.43-1.02zM335.39 574.26c-1 .9-1 1.13-.05 2.53a3.55 3.55 0 004.78 1 1.71 1.71 0 00.69-2.51c-1.25-1.63-3.81-2.37-5.42-1.02z" transform="translate(-261.54 -38.74)"/><path fill="#fff" stroke="#000" stroke-miterlimit="10" d="M15.42 533.02h55.44v21.6H15.42z"/><text font-family="TimesNewRomanPSMT,Times New Roman" font-size="14" transform="translate(21.74 550.3)">Logout</text></g><g id="_Group_name_thuc-thi-sql_" data-name="&lt;Group name=&quot;thuc-thi-sql&quot;&gt;"><path d="M385.87 587.93c-.27 1.31-.14 1.49 1.43 2.09a3.56 3.56 0 004.48-2c.4-1.11.15-2-.9-2.44-1.97-.58-4.47.31-5.01 2.35zM375.7 596.05c-.34 1.28-.22 1.48 1.32 2.15a3.56 3.56 0 004.58-1.73 1.71 1.71 0 00-.78-2.49c-1.93-.7-4.47.02-5.12 2.07zM363.79 603.47c-.3 1.32-.17 1.53 1.4 2.23a3.47 3.47 0 004.58-1.76 1.81 1.81 0 00-.86-2.56c-1.98-.73-4.52.03-5.12 2.09zM354.64 610.46c-.19 1.34-.05 1.53 1.59 2.09a3.46 3.46 0 004.4-2.14 1.81 1.81 0 00-1.08-2.48c-2.03-.56-4.5.42-4.91 2.53z" transform="translate(-261.54 -38.74)"/><path fill="#fff" stroke="#000" stroke-miterlimit="10" d="M15.42 560.38h74.25v21.6H15.42z"/><text font-family="TimesNewRomanPSMT,Times New Roman" font-size="14" transform="translate(17.78 574.78)">Thực thi sql</text></g><g id="_Group_name_import-sql_" data-name="&lt;Group name=&quot;import-sql&quot;&gt;"><path d="M387.52 609.62c-.39 1.27-.28 1.47 1.23 2.21a3.57 3.57 0 004.65-1.53 1.71 1.71 0 00-.67-2.52c-1.9-.78-4.47-.14-5.21 1.84zM396.36 603.4c-.38 1.27-.27 1.47 1.25 2.19a3.55 3.55 0 004.63-1.58 1.71 1.71 0 00-.7-2.51c-1.91-.76-4.48-.09-5.18 1.9zM404.32 598.31c.07 1.35.24 1.51 1.95 1.76a3.46 3.46 0 003.93-2.92 1.81 1.81 0 00-1.51-2.24c-2.1-.17-4.35 1.25-4.37 3.4zM411.76 592.23c.05 1.35.22 1.51 1.93 1.78a3.46 3.46 0 004-2.88c.12-1.19-.36-2.08-1.5-2.25-2.13-.2-4.4 1.2-4.43 3.35zM377.35 618.1c-.31 1.29-.18 1.49 1.38 2.12a3.55 3.55 0 004.52-1.86 1.7 1.7 0 00-.84-2.46c-1.95-.65-4.47.17-5.06 2.2zM365.45 625.85c-.12 1.35 0 1.54 1.69 2a3.46 3.46 0 004.29-2.35 1.81 1.81 0 00-1.19-2.43c-2.05-.44-4.48.66-4.79 2.78zM356.29 632.05c-.36 1.31-.24 1.52 1.31 2.27a3.47 3.47 0 004.64-1.58 1.81 1.81 0 00-.76-2.59c-1.95-.8-4.48-.15-5.19 1.9z" transform="translate(-261.54 -38.74)"/><path fill="#fff" stroke="#000" stroke-miterlimit="10" d="M15.42 587.74h74.25v21.6H15.42z"/><text font-family="TimesNewRomanPSMT,Times New Roman" font-size="14" transform="translate(17.78 602.86)"><tspan xml:space="preserve">import SQ</tspan> <tspan x="62.23" y="0" letter-spacing="-.037em">L</tspan> </text></g><g id="_Group_name_cac-cau-lenh-sql-co-ban_" data-name="&lt;Group name=&quot;cac-cau-lenh-sql-co-ban&quot;&gt;"><path d="M612.07 624.61c-.08 1.33.08 1.49 1.72 1.85a3.55 3.55 0 004.15-2.58c.24-1.16-.15-2-1.24-2.29-2.04-.31-4.39.92-4.63 3.02zM618.57 616.5c.15 1.32.34 1.45 2 1.52a3.55 3.55 0 003.62-3.28c0-1.18-.51-2-1.62-2-2.04.02-4.13 1.65-4 3.76zM603.88 632.55c.06 1.33.24 1.48 1.91 1.65a3.54 3.54 0 003.83-3c.11-1.18-.38-2-1.49-2.14-2.05-.06-4.25 1.38-4.25 3.49zM594.57 642.46c.07 1.32.24 1.47 1.92 1.65a3.55 3.55 0 003.83-3c.11-1.18-.37-2-1.49-2.14-2.05-.11-4.25 1.37-4.26 3.49zM586.85 650.9c.29 1.3.48 1.42 2.16 1.31a3.55 3.55 0 003.26-3.65c-.09-1.18-.71-1.92-1.83-1.85-2.04.29-3.95 2.11-3.59 4.19zM580.22 659.51c.27 1.3.47 1.42 2.15 1.33a3.56 3.56 0 003.3-3.61c-.08-1.18-.69-1.93-1.81-1.87-2.04.24-3.97 2.06-3.64 4.15zM571.74 668.24c.1 1.32.28 1.47 2 1.6a3.55 3.55 0 003.76-3.13c.07-1.18-.43-2-1.55-2.1-2.1-.03-4.26 1.52-4.21 3.63zM563.63 677.73c.2 1.31.39 1.44 2.07 1.44a3.55 3.55 0 003.5-3.42c0-1.18-.59-2-1.71-2-2.05.17-4.08 1.88-3.86 3.98zM557.16 687.11c.07 1.32.24 1.47 1.91 1.65a3.55 3.55 0 003.84-3c.11-1.18-.38-2-1.49-2.14-2.05-.11-4.25 1.38-4.26 3.49z" transform="translate(-261.54 -38.74)"/><path fill="#fff" stroke="#000" stroke-miterlimit="10" d="M134.59 623.86h159.49v47.3H134.59z"/><path d="M412.92 670.83l.27 4h-.27a5.15 5.15 0 00-1.56-2.62 3.79 3.79 0 00-2.42-.8 3.79 3.79 0 00-3.66 2.53 8.66 8.66 0 00-.55 3.27 7.08 7.08 0 00.52 2.81 3.93 3.93 0 001.56 1.82 4.53 4.53 0 002.38.63 4 4 0 002.05-.5 6.68 6.68 0 001.95-2l.27.18a6.32 6.32 0 01-2.09 2.33 5.31 5.31 0 01-2.84.73 5.4 5.4 0 01-4.59-2.19 6.29 6.29 0 01-1.21-3.85 6.86 6.86 0 01.8-3.28 5.79 5.79 0 012.2-2.32 6 6 0 013.06-.82 5.59 5.59 0 012.55.63 1.48 1.48 0 00.53.2.57.57 0 00.41-.17 1.37 1.37 0 00.33-.66zM419.21 681.86a12.75 12.75 0 01-1.56 1.11 2.29 2.29 0 01-1 .22 1.81 1.81 0 01-1.37-.57 2.1 2.1 0 01-.54-1.51 2 2 0 01.26-1 3.58 3.58 0 011.25-1.12 19.77 19.77 0 013-1.28v-.32a2.66 2.66 0 00-.38-1.65 1.39 1.39 0 00-1.11-.45 1.24 1.24 0 00-.88.3.88.88 0 00-.34.68v.51a.89.89 0 01-.21.63.75.75 0 01-1.07 0 .88.88 0 01-.2-.63 1.77 1.77 0 01.77-1.38 3.29 3.29 0 012.17-.64 3.8 3.8 0 011.76.36 1.69 1.69 0 01.76.86 4.6 4.6 0 01.16 1.54v2.74a12.94 12.94 0 000 1.41.54.54 0 00.15.34.33.33 0 00.23.09.49.49 0 00.25-.06 6.05 6.05 0 00.71-.64v.49c-.66.88-1.28 1.32-1.88 1.32a.86.86 0 01-.69-.3 1.65 1.65 0 01-.24-1.05zm0-.57v-3.07a15.49 15.49 0 00-1.71.75 3 3 0 00-1 .81 1.56 1.56 0 00-.3.92 1.52 1.52 0 00.38 1 1.14 1.14 0 00.87.42 3.16 3.16 0 001.76-.83zm.87-10.49l-2.59 3h-.3l.92-3zM429.48 680a4.41 4.41 0 01-1.28 2.45 3.06 3.06 0 01-2.1.86 3.13 3.13 0 01-2.39-1.15 4.54 4.54 0 01-1-3.12 4.3 4.3 0 011.13-3.08 3.62 3.62 0 012.71-1.19 3 3 0 012 .63 1.76 1.76 0 01.77 1.31.7.7 0 01-.22.54.81.81 0 01-.6.2.92.92 0 01-.78-.33 1.35 1.35 0 01-.2-.7 1.11 1.11 0 00-.36-.79 1.24 1.24 0 00-.85-.27 1.74 1.74 0 00-1.41.65 3.46 3.46 0 00-.72 2.28 4.6 4.6 0 00.71 2.54 2.17 2.17 0 001.91 1.11 2.33 2.33 0 001.55-.59 4 4 0 00.94-1.47zM446.46 680a4.34 4.34 0 01-1.27 2.45 3.06 3.06 0 01-2.1.86 3.13 3.13 0 01-2.39-1.15 4.54 4.54 0 01-1-3.12 4.3 4.3 0 011.13-3.08 3.62 3.62 0 012.71-1.19 3 3 0 012 .63 1.76 1.76 0 01.77 1.31.74.74 0 01-.22.54.81.81 0 01-.6.2.92.92 0 01-.78-.33 1.35 1.35 0 01-.2-.7 1.11 1.11 0 00-.36-.79 1.24 1.24 0 00-.85-.27 1.73 1.73 0 00-1.41.65 3.46 3.46 0 00-.72 2.28 4.6 4.6 0 00.71 2.54 2.17 2.17 0 001.91 1.11 2.33 2.33 0 001.55-.59 4 4 0 00.94-1.47zM452.18 681.86a13.63 13.63 0 01-1.56 1.11 2.29 2.29 0 01-1 .22 1.8 1.8 0 01-1.37-.57 2.1 2.1 0 01-.54-1.51 1.89 1.89 0 01.26-1 3.58 3.58 0 011.25-1.12 19.31 19.31 0 013-1.28v-.32a2.66 2.66 0 00-.38-1.65 1.4 1.4 0 00-1.12-.45 1.25 1.25 0 00-.88.3.91.91 0 00-.33.68v.51a.89.89 0 01-.21.63.74.74 0 01-.54.22.69.69 0 01-.53-.23.89.89 0 01-.21-.63 1.78 1.78 0 01.78-1.38 3.29 3.29 0 012.17-.64 3.8 3.8 0 011.76.36 1.69 1.69 0 01.76.86 4.6 4.6 0 01.16 1.54v2.74a12.94 12.94 0 000 1.41.54.54 0 00.15.34.32.32 0 00.23.09.51.51 0 00.25-.06 6.05 6.05 0 00.71-.64v.49c-.66.88-1.29 1.32-1.88 1.32a.86.86 0 01-.69-.3 1.58 1.58 0 01-.24-1.04zm-1.91-11h1.62l1.67 2.91h-.27l-2.4-1.87-2 1.87h-.26zm1.91 10.44v-3.07a16 16 0 00-1.72.75 3 3 0 00-1 .81 1.56 1.56 0 00-.3.92 1.52 1.52 0 00.38 1 1.14 1.14 0 00.87.42 3.16 3.16 0 001.77-.84zM462.66 675v4.88a12.69 12.69 0 00.07 1.71.7.7 0 00.21.43.48.48 0 00.34.13 1.51 1.51 0 00.61-.15l.13.3-2.41 1h-.4v-1.71a7.65 7.65 0 01-1.58 1.42 2.45 2.45 0 01-1.15.29 1.83 1.83 0 01-1.17-.39 2 2 0 01-.69-1 6 6 0 01-.2-1.74v-3.59a1.84 1.84 0 00-.12-.8.77.77 0 00-.36-.33 2.12 2.12 0 00-.88-.11V675h2.82v5.39a2 2 0 00.39 1.47 1.36 1.36 0 001 .36 1.9 1.9 0 00.85-.24 4.61 4.61 0 001.14-.91v-4.56a1.31 1.31 0 00-.25-.93 1.6 1.6 0 00-1-.25V675zM476.37 670.52v10.68a3 3 0 00.11 1 .84.84 0 00.34.38 2 2 0 00.85.13v.29h-3.94v-.31a1.59 1.59 0 00.75-.12.76.76 0 00.32-.38 2.78 2.78 0 00.12-1v-7.31a12.33 12.33 0 00-.07-1.68.75.75 0 00-.19-.42.53.53 0 00-.35-.12 1.55 1.55 0 00-.58.15l-.15-.31 2.4-1zM480 678a4.11 4.11 0 00.87 2.82 2.64 2.64 0 002.07 1 2.24 2.24 0 001.37-.43 3.2 3.2 0 001-1.49l.27.18a4.18 4.18 0 01-1.07 2.19 2.85 2.85 0 01-2.22 1 3.27 3.27 0 01-2.49-1.13 4.37 4.37 0 01-1-3 4.56 4.56 0 011.06-3.22 3.46 3.46 0 012.66-1.16 3 3 0 012.22.9 3.26 3.26 0 01.87 2.38zm1.63-7.15h1.61l1.67 2.91h-.27l-2.4-1.87-2 1.87h-.27zm-1.63 6.64h3.73a3.29 3.29 0 00-.19-1.09 1.74 1.74 0 00-.65-.77 1.65 1.65 0 00-.91-.28 1.82 1.82 0 00-1.31.57 2.42 2.42 0 00-.67 1.57zm2.19 6.59a.92.92 0 01.69.28 1 1 0 11-.69-.28zM488.94 676.44a3.82 3.82 0 012.7-1.71 1.91 1.91 0 011.13.33 2.19 2.19 0 01.76 1.09 5 5 0 01.19 1.62v3.43a2.69 2.69 0 00.13 1 .68.68 0 00.31.34 1.76 1.76 0 00.79.13v.33h-4v-.31h.17a1.31 1.31 0 00.79-.18.88.88 0 00.31-.5 6 6 0 000-.83v-3.29a3.36 3.36 0 00-.28-1.6 1 1 0 00-1-.5 2.92 2.92 0 00-2.09 1.15v4.24a2.83 2.83 0 00.1 1 .79.79 0 00.34.38 2 2 0 00.87.12v.32h-4v-.31h.18a1 1 0 00.83-.32 2.29 2.29 0 00.21-1.19v-3a14.19 14.19 0 00-.06-1.76.78.78 0 00-.21-.43.52.52 0 00-.36-.12 1.92 1.92 0 00-.59.13l-.13-.31 2.42-1h.38zM498 670.52v5.89a6.79 6.79 0 011.55-1.37 2.33 2.33 0 011.14-.31 1.89 1.89 0 011.18.38 2.23 2.23 0 01.73 1.19 8.52 8.52 0 01.16 2.05v2.85a2.79 2.79 0 00.13 1 .64.64 0 00.3.33 1.66 1.66 0 00.77.13v.34h-4v-.31h.19a1.28 1.28 0 00.78-.18.88.88 0 00.31-.5 7.18 7.18 0 000-.83v-2.85a7 7 0 00-.13-1.73 1.2 1.2 0 00-.44-.62 1.29 1.29 0 00-.72-.2 1.93 1.93 0 00-.89.23 4.22 4.22 0 00-1.06.99v4.25a3.39 3.39 0 00.09 1 .72.72 0 00.35.34 1.91 1.91 0 00.86.14v.27h-4v-.31a1.76 1.76 0 00.84-.17.62.62 0 00.29-.34 3 3 0 00.1-1v-7.28a13.4 13.4 0 00-.06-1.7.82.82 0 00-.21-.43.52.52 0 00-.36-.12 2.1 2.1 0 00-.6.15l-.12-.31 2.41-1zM521.29 670.83V675H521a4.91 4.91 0 00-.57-1.89 2.89 2.89 0 00-1.16-1.11 3.18 3.18 0 00-1.56-.42 2.16 2.16 0 00-1.52.56 1.69 1.69 0 00-.59 1.27 1.51 1.51 0 00.37 1 10 10 0 002.6 1.75 18.44 18.44 0 012.28 1.38 3.39 3.39 0 01.94 1.13 3 3 0 01.33 1.36 3.08 3.08 0 01-1.05 2.33 3.78 3.78 0 01-2.71 1 5 5 0 01-1-.08 7.45 7.45 0 01-1.13-.32 5.06 5.06 0 00-1.09-.27.44.44 0 00-.34.13 1 1 0 00-.19.54h-.33v-4.08h.33a6 6 0 00.61 1.92 3 3 0 001.19 1.06 3.67 3.67 0 001.74.42 2.49 2.49 0 001.74-.58 1.82 1.82 0 00.63-1.37 1.86 1.86 0 00-.24-.89 2.65 2.65 0 00-.75-.84c-.23-.17-.85-.55-1.87-1.12a18.19 18.19 0 01-2.18-1.36 3.68 3.68 0 01-1-1.13 2.81 2.81 0 01-.33-1.35 3 3 0 011-2.21 3.51 3.51 0 012.51-.93 5 5 0 012 .47 2.28 2.28 0 00.69.22.54.54 0 00.38-.14 1.14 1.14 0 00.23-.55zM531 683.15a7.16 7.16 0 001.94 2.28 4.63 4.63 0 002.37.83v.29a9.88 9.88 0 01-2.59-.49 11.6 11.6 0 01-2.62-1.23 12.85 12.85 0 01-2.13-1.68 8.51 8.51 0 01-2-1.08 5.86 5.86 0 01-1.67-2.09 6.71 6.71 0 01-.59-2.94 6.05 6.05 0 011.73-4.44 5.64 5.64 0 014.19-1.77 5.44 5.44 0 014 1.77 6.17 6.17 0 011.71 4.47 6.31 6.31 0 01-1.22 3.84 6 6 0 01-3.12 2.24zm-1.47-11.64a3.23 3.23 0 00-2.58 1.14 6.63 6.63 0 00-1.23 4.39 7 7 0 001.25 4.45 3.12 3.12 0 002.56 1.21 3.32 3.32 0 002.66-1.21 6.43 6.43 0 001.18-4.2 8.7 8.7 0 00-.65-3.59 3.58 3.58 0 00-1.33-1.66 3.39 3.39 0 00-1.89-.53zM546.36 679.73l.29.06-1 3.23h-9.25v-.32h.45a1.18 1.18 0 001.08-.5 2.7 2.7 0 00.19-1.3v-7.69a2.36 2.36 0 00-.25-1.39 1.29 1.29 0 00-1-.39h-.45v-.33h5.4v.33a3.28 3.28 0 00-1.33.17 1.05 1.05 0 00-.52.47 3.65 3.65 0 00-.15 1.35v7.48a2.36 2.36 0 00.15 1 .62.62 0 00.32.27 5.57 5.57 0 001.37.09h.87a6.1 6.1 0 001.93-.21 2.5 2.5 0 001-.71 6.11 6.11 0 00.9-1.61zM450 701.56a4.4 4.4 0 01-1.27 2.45 3.1 3.1 0 01-2.1.86 3.14 3.14 0 01-2.4-1.15 4.59 4.59 0 01-1-3.12 4.29 4.29 0 011.12-3.08 3.64 3.64 0 012.72-1.19 3 3 0 011.93.67 1.74 1.74 0 01.76 1.31.73.73 0 01-.21.54.85.85 0 01-.61.2 1 1 0 01-.78-.33 1.46 1.46 0 01-.2-.7 1.15 1.15 0 00-.35-.79 1.26 1.26 0 00-.85-.27 1.76 1.76 0 00-1.42.65 3.51 3.51 0 00-.71 2.28 4.52 4.52 0 00.71 2.54 2.17 2.17 0 001.91 1.11 2.35 2.35 0 001.55-.59 4.08 4.08 0 00.94-1.47zM458.85 697.93c.17-.08.23-.17.17-.28a2.14 2.14 0 01-.48-.42.7.7 0 01.28-1 .82.82 0 01.65-.08.9.9 0 01.57.51 1.13 1.13 0 010 .85 1.21 1.21 0 01-.74.74 3.58 3.58 0 01-.88.19 4.22 4.22 0 01.5 2 5 5 0 01-.52 2.18 3.9 3.9 0 01-1.4 1.68 3.75 3.75 0 01-2 .57 3.44 3.44 0 01-2.89-1.45 4.53 4.53 0 01-.9-2.75 4.82 4.82 0 01.55-2.21 3.88 3.88 0 011.45-1.61 3.73 3.73 0 011.89-.52 3.56 3.56 0 012.93 1.39 4.06 4.06 0 01.26.36 3.1 3.1 0 00.56-.15zm-4.05-1a1.77 1.77 0 00-1.7 1.25 4.79 4.79 0 00-.29 1.79 6.12 6.12 0 00.69 3 2.14 2.14 0 001.85 1.27c1.31 0 2-1 2-3.12a5.55 5.55 0 00-.92-3.37 1.92 1.92 0 00-1.63-.85zM467.36 698a3.23 3.23 0 012.52-1.63 2.79 2.79 0 012.16 1.06 4.24 4.24 0 01.92 2.9 4.45 4.45 0 01-1.42 3.45 3.92 3.92 0 01-2.72 1.13 4.28 4.28 0 01-1.43-.26 6.31 6.31 0 01-1.48-.76v-8.34a12.41 12.41 0 00-.07-1.69.67.67 0 00-.21-.43.51.51 0 00-.35-.12 1.68 1.68 0 00-.61.15l-.13-.31 2.42-1h.4zm0 .56v4.82a3.42 3.42 0 00.92.66 2.3 2.3 0 001 .23 1.93 1.93 0 001.49-.88 4.09 4.09 0 00.69-2.56 3.63 3.63 0 00-.69-2.38 1.91 1.91 0 00-2.5-.59 4.16 4.16 0 00-.91.66zM478.71 703.46a13 13 0 01-1.55 1.11 2.51 2.51 0 01-1 .22 1.82 1.82 0 01-1.38-.57 2.12 2.12 0 01-.54-1.51 2 2 0 01.26-1 3.53 3.53 0 011.26-1.12 19.09 19.09 0 013-1.28V699a2.66 2.66 0 00-.38-1.65 1.39 1.39 0 00-1.11-.45 1.25 1.25 0 00-.88.3.92.92 0 00-.34.68v.51a.93.93 0 01-.2.63.74.74 0 01-.54.22.71.71 0 01-.54-.23.93.93 0 01-.2-.63 1.77 1.77 0 01.77-1.38 3.3 3.3 0 012.17-.64 3.77 3.77 0 011.76.36 1.69 1.69 0 01.76.86 4.6 4.6 0 01.16 1.54v2.74a11.9 11.9 0 000 1.41.54.54 0 00.14.34.35.35 0 00.23.09.49.49 0 00.25-.06 6.05 6.05 0 00.71-.64v.49c-.65.88-1.28 1.32-1.88 1.32a.84.84 0 01-.68-.3 1.64 1.64 0 01-.25-1.05zm0-.57v-3.07a16.46 16.46 0 00-1.71.75 3.08 3.08 0 00-1 .81 1.62 1.62 0 00-.29.92 1.51 1.51 0 00.37 1.05 1.17 1.17 0 00.87.42 3.14 3.14 0 001.76-.88zm-.29-8.53a3.19 3.19 0 00-.54.59 1 1 0 00-.12.49h-.3a2.7 2.7 0 01.44-1.24 1.53 1.53 0 00.28-.74.57.57 0 00-.64-.65.65.65 0 00-.45.14.17.17 0 00-.06.12.62.62 0 00.1.22.55.55 0 01.1.24c0 .2-.11.31-.34.31s-.44-.17-.44-.5a.75.75 0 01.35-.61 1.49 1.49 0 01.87-.24 1.39 1.39 0 011 .34.83.83 0 01.25.59 1.39 1.39 0 01-.5.94zM484.49 698a3.79 3.79 0 012.69-1.71 2 2 0 011.14.33 2.18 2.18 0 01.75 1.09 5 5 0 01.2 1.62v3.43a3 3 0 00.12 1 .73.73 0 00.31.34 1.84 1.84 0 00.8.12v.32h-4v-.32h.16a1.3 1.3 0 00.79-.17.88.88 0 00.31-.5 4.3 4.3 0 000-.83v-3.29a3.34 3.34 0 00-.29-1.6 1 1 0 00-1-.5 2.87 2.87 0 00-2.08 1.15v4.24a3.22 3.22 0 00.09 1 .91.91 0 00.34.38 2.14 2.14 0 00.88.11v.32h-4v-.32h.3a.93.93 0 00.83-.31 2.27 2.27 0 00.22-1.19v-3a13.33 13.33 0 00-.07-1.76.72.72 0 00-.2-.43.53.53 0 00-.37-.12 1.92 1.92 0 00-.59.13l-.13-.31 2.43-1h.38z" transform="translate(-261.54 -38.74)"/></g><g id="_Group_name_lam-viec-voi-data_" data-name="&lt;Group name=&quot;lam-viec-voi-data&quot;&gt;"><path fill="#fff" stroke="#000" stroke-miterlimit="10" stroke-width="1.5" d="M365.13 342.76h141.48v59.4H365.13z"/><path d="M796.22 410.05c-1 .9-1 1.13-.06 2.53a3.54 3.54 0 004.77 1 1.7 1.7 0 00.71-2.51c-1.24-1.6-3.78-2.35-5.42-1.02zM805.66 410.05c-1 .9-1 1.13-.07 2.53a3.55 3.55 0 004.78 1 1.71 1.71 0 00.71-2.51c-1.24-1.6-3.79-2.35-5.42-1.02zM783.47 410.27c-.9 1-.89 1.2.15 2.52a3.55 3.55 0 004.85.63 1.71 1.71 0 00.49-2.56c-1.38-1.53-3.96-2.06-5.49-.59zM770.87 410.14c-1 .93-1 1.16 0 2.52a3.55 3.55 0 004.81.88 1.72 1.72 0 00.62-2.53c-1.3-1.6-3.84-2.26-5.43-.87z" transform="translate(-261.54 -38.74)"/><text font-family="TimesNewRomanPSMT,Times New Roman" font-size="18" transform="translate(369.74 376.9)"><tspan xml:space="preserve">Làm việc với data</tspan></text></g><g id="_Group_name_select_" data-name="&lt;Group name=&quot;select&quot;&gt;"><path d="M383.84 671.69c-1 .9-1 1.13-.07 2.53a3.55 3.55 0 004.78 1 1.71 1.71 0 00.71-2.51c-1.26-1.6-3.79-2.35-5.42-1.02zM371.09 671.91c-.91 1-.89 1.2.15 2.52a3.55 3.55 0 004.85.63 1.71 1.71 0 00.49-2.56c-1.38-1.5-3.98-2.06-5.49-.59zM358.49 671.78c-.95.92-.95 1.15 0 2.52a3.55 3.55 0 004.81.88 1.7 1.7 0 00.62-2.53c-1.27-1.6-3.84-2.26-5.43-.87z" transform="translate(-261.54 -38.74)"/><path fill="#fff" stroke="#000" stroke-miterlimit="10" d="M15.42 623.86h74.25v21.6H15.42z"/><text font-family="TimesNewRomanPSMT,Times New Roman" font-size="18" transform="translate(28.58 640.18)">select</text></g><g id="_Group_name_insert_" data-name="&lt;Group name=&quot;insert&quot;&gt;"><path d="M383.84 699.65c-1 .9-1 1.13-.07 2.53a3.55 3.55 0 004.78 1 1.71 1.71 0 00.71-2.51c-1.26-1.6-3.79-2.35-5.42-1.02zM371.09 699.87c-.91 1-.89 1.2.15 2.52a3.55 3.55 0 004.85.63 1.71 1.71 0 00.49-2.56c-1.38-1.53-3.98-2.06-5.49-.59zM358.49 699.74c-.95.92-.95 1.15 0 2.52a3.55 3.55 0 004.81.88 1.7 1.7 0 00.62-2.53c-1.27-1.61-3.84-2.26-5.43-.87z" transform="translate(-261.54 -38.74)"/><path fill="#fff" stroke="#000" stroke-miterlimit="10" d="M15.42 651.82h74.25v21.6H15.42z"/><text font-family="TimesNewRomanPSMT,Times New Roman" font-size="18" transform="translate(30.5 668.98)">insert</text></g><g id="_Group_name_update_" data-name="&lt;Group name=&quot;update&quot;&gt;"><path d="M376.39 718.31c-.4 1.27-.28 1.47 1.22 2.21a3.56 3.56 0 004.65-1.53 1.7 1.7 0 00-.67-2.52c-1.9-.78-4.47-.14-5.2 1.84zM386.55 712.32c-.24 1.3-.1 1.49 1.48 2a3.55 3.55 0 004.43-2.08 1.71 1.71 0 00-1-2.42c-1.95-.51-4.46.44-4.91 2.5zM364.55 724c-.36 1.28-.24 1.48 1.29 2.17a3.56 3.56 0 004.6-1.67 1.71 1.71 0 00-.75-2.5c-1.92-.74-4.47 0-5.14 2zM354.78 729.11c-.39 1.27-.28 1.47 1.23 2.21a3.56 3.56 0 004.65-1.53 1.72 1.72 0 00-.67-2.52c-1.9-.78-4.48-.14-5.21 1.84z" transform="translate(-261.54 -38.74)"/><path fill="#fff" stroke="#000" stroke-miterlimit="10" d="M15.42 679.31h74.25v21.6H15.42z"/><text font-family="TimesNewRomanPSMT,Times New Roman" font-size="18" transform="translate(25.7 695.38)">update</text></g><g id="_Group_name_delete_" data-name="&lt;Group name=&quot;delete&quot;&gt;"><path d="M394.84 718c.18 1.32.37 1.45 2.05 1.49a3.56 3.56 0 003.57-3.35c0-1.18-.55-2-1.67-2-2.06.12-4.12 1.79-3.95 3.86zM387.38 727.28c.06 1.33.23 1.48 1.9 1.66a3.55 3.55 0 003.85-3c.12-1.17-.37-2-1.48-2.14-2.05-.11-4.26 1.37-4.27 3.48zM380.11 734.59c-.11 1.32.05 1.49 1.68 1.88a3.55 3.55 0 004.19-2.53c.26-1.15-.12-2.05-1.21-2.31-2.02-.34-4.39.86-4.66 2.96zM372 741.46c-.08 1.33.07 1.5 1.71 1.86a3.55 3.55 0 004.16-2.57c.24-1.16-.15-2-1.24-2.3-2.02-.31-4.37.91-4.63 3.01zM362.61 749c-.23 1.31-.1 1.49 1.49 2a3.56 3.56 0 004.43-2.07c.37-1.13.09-2.06-1-2.42-1.95-.51-4.43.49-4.92 2.49zM354.85 756.47c0 1.33.19 1.48 1.86 1.71a3.54 3.54 0 003.93-2.9c.15-1.17-.31-2-1.42-2.18-2.05-.16-4.29 1.26-4.37 3.37z" transform="translate(-261.54 -38.74)"/><path fill="#fff" stroke="#000" stroke-miterlimit="10" d="M15.42 707.74h74.25v21.6H15.42z"/><text font-family="TimesNewRomanPSMT,Times New Roman" font-size="18" transform="translate(28.22 724.18)">delete</text></g><g id="_Group_name_ket-noi-voi-php_" data-name="&lt;Group name=&quot;ket-noi-voi-php&quot;&gt;"><path d="M694.94 624.21c.94.94 1.17.94 2.53-.06a3.56 3.56 0 00.81-4.82 1.71 1.71 0 00-2.54-.58c-1.58 1.31-2.21 3.89-.8 5.46zM695 636.72c.94.93 1.17.93 2.52-.07a3.55 3.55 0 00.78-4.83 1.71 1.71 0 00-2.54-.57c-1.61 1.33-2.23 3.91-.76 5.47zM695 647c.95.93 1.18.92 2.53-.09a3.55 3.55 0 00.75-4.83 1.71 1.71 0 00-2.55-.56c-1.59 1.29-2.19 3.87-.73 5.48zM694.93 656.4c.94.94 1.17.94 2.53 0a3.55 3.55 0 00.82-4.82 1.69 1.69 0 00-2.53-.59c-1.59 1.26-2.23 3.83-.82 5.41z" transform="translate(-261.54 -38.74)"/><path fill="#fff" stroke="#000" stroke-miterlimit="10" d="M353.47 621.81h159.49v47.3H353.47z"/><text font-family="TimesNewRomanPSMT,Times New Roman" font-size="18" transform="translate(373.22 647.86)">kết nối với PH <tspan x="105.02" y="0" letter-spacing="-.037em">P</tspan></text></g><g id="_Group_name_mysqli_" data-name="&lt;Group name=&quot;mysqli&quot;&gt;"><path d="M770.79 716.55c1.33.07 1.49-.08 1.84-1.73a3.54 3.54 0 00-2.61-4.13c-1.15-.23-2 .16-2.28 1.25-.3 2.06.95 4.38 3.05 4.61zM780 724.29c1.33 0 1.49-.19 1.72-1.86a3.55 3.55 0 00-2.91-3.93c-1.17-.15-2 .31-2.18 1.42-.18 2.08 1.23 4.29 3.37 4.37zM791.19 730.24c1.32-.1 1.47-.28 1.6-2a3.56 3.56 0 00-3.14-3.76c-1.18-.07-2 .44-2.09 1.55-.03 2.11 1.51 4.26 3.63 4.21zM802.06 738.51c1.33 0 1.48-.2 1.71-1.86a3.56 3.56 0 00-2.91-3.93c-1.18-.14-2 .32-2.19 1.43-.14 2.05 1.33 4.29 3.39 4.36z" transform="translate(-261.54 -38.74)"/><path fill="#fff" stroke="#000" stroke-miterlimit="10" d="M533.21 704.5h74.25v21.6h-74.25z"/><text font-family="TimesNewRomanPSMT,Times New Roman" font-size="14" transform="translate(546.38 719.38)">mysqli</text></g><g id="_Group_name_PDO_" data-name="&lt;Group name=&quot;PDO&quot;&gt;"><path d="M647.4 715c.57 1.2.78 1.27 2.4.8a3.55 3.55 0 002.4-4.26c-.35-1.13-1.12-1.72-2.19-1.41-1.93.73-3.4 2.94-2.61 4.87zM641.58 724.6c.62 1.17.84 1.24 2.43.69a3.54 3.54 0 002.2-4.36c-.4-1.12-1.19-1.68-2.25-1.31-1.9.79-3.27 3.06-2.38 4.98zM634.66 734.06c.49 1.23.7 1.32 2.34 1a3.55 3.55 0 002.66-4.11c-.28-1.15-1-1.79-2.1-1.54-1.97.53-3.56 2.64-2.9 4.65zM627.73 742.5c.51 1.23.72 1.31 2.35.91a3.54 3.54 0 002.59-4.15c-.29-1.14-1-1.77-2.12-1.51-1.96.62-3.55 2.76-2.82 4.75z" transform="translate(-261.54 -38.74)"/><path fill="#fff" stroke="#000" stroke-miterlimit="10" d="M316.35 707.74h74.25v21.6h-74.25z"/><text font-family="TimesNewRomanPSMT,Times New Roman" font-size="14" transform="translate(342.02 724.18)">PDO</text></g><g id="_Group_name_fetch-data_" data-name="&lt;Group name=&quot;fetch-data&quot;&gt;"><path d="M575.54 776c.56 1.2.78 1.27 2.39.8a3.55 3.55 0 002.4-4.26c-.35-1.13-1.12-1.73-2.19-1.41-1.93.71-3.4 2.92-2.6 4.87zM566.44 785.62c.62 1.18.84 1.24 2.43.7a3.55 3.55 0 002.2-4.37c-.4-1.11-1.19-1.67-2.25-1.31-1.9.79-3.26 3.06-2.38 4.98zM557.58 794.51c.49 1.24.7 1.32 2.34 1a3.55 3.55 0 002.66-4.1c-.28-1.15-1-1.79-2.1-1.55-1.97.54-3.58 2.65-2.9 4.65zM550.05 800.46c.51 1.23.72 1.31 2.35.91a3.54 3.54 0 002.59-4.14c-.29-1.15-1-1.78-2.12-1.51-1.96.61-3.53 2.75-2.82 4.74z" transform="translate(-261.54 -38.74)"/><path fill="#fff" stroke="#000" stroke-miterlimit="10" d="M223.94 765.46h70.15v21.6h-70.15z"/><text font-family="TimesNewRomanPSMT,Times New Roman" font-size="14" transform="translate(230.18 779.86)">fetch data</text></g><g id="_Group_name_connect_" data-name="&lt;Group name=&quot;connect&quot;&gt;"><path d="M610.08 776.33c.57 1.2.79 1.28 2.4.81a3.56 3.56 0 002.4-4.27c-.35-1.13-1.12-1.72-2.19-1.41-1.93.7-3.4 2.91-2.61 4.87zM601 786c.62 1.17.84 1.24 2.43.69a3.56 3.56 0 002.2-4.37c-.4-1.11-1.19-1.67-2.25-1.31-1.91.74-3.28 2.99-2.38 4.99zM592.13 794.84c.49 1.23.7 1.32 2.34.95a3.55 3.55 0 002.66-4.11c-.28-1.15-1-1.79-2.1-1.54-1.97.58-3.58 2.69-2.9 4.7zM584.59 800.79c.51 1.22.73 1.31 2.36.91a3.56 3.56 0 002.59-4.15c-.3-1.14-1-1.77-2.12-1.51-1.97.62-3.53 2.76-2.83 4.75z" transform="translate(-261.54 -38.74)"/><path fill="#fff" stroke="#000" stroke-miterlimit="10" d="M302.89 765.46h61.77v21.6h-61.77z"/><text font-family="TimesNewRomanPSMT,Times New Roman" font-size="14" transform="translate(309.86 779.86)">connect</text></g><g id="_Group_name_exception_" data-name="&lt;Group name=&quot;exception&quot;&gt;"><path d="M630.58 776.14c1.25.47 1.45.37 2.28-1.1a3.55 3.55 0 00-1.26-4.72 1.71 1.71 0 00-2.56.52c-.89 1.85-.4 4.46 1.54 5.3zM640.4 786.59c1.33 0 1.49-.15 1.77-1.8a3.56 3.56 0 00-2.77-4c-1.17-.18-2 .25-2.23 1.35-.17 2.01 1.12 4.3 3.23 4.45zM647.91 794.89c1.33 0 1.49-.18 1.73-1.84a3.56 3.56 0 00-2.88-4c-1.17-.15-2 .3-2.19 1.41-.17 2.09 1.23 4.34 3.34 4.43zM655.06 802c1.32.17 1.5 0 2-1.58a3.55 3.55 0 00-2.3-4.32c-1.14-.32-2.06 0-2.37 1.09-.48 2.02.61 4.45 2.67 4.81z" transform="translate(-261.54 -38.74)"/><path fill="#fff" stroke="#000" stroke-miterlimit="10" d="M373.46 765.46h69.07v21.6h-69.07z"/><text font-family="TimesNewRomanPSMT,Times New Roman" font-size="14" transform="translate(377.78 779.86)">exception</text></g><g id="_Group_execute-SQL_" data-name="&lt;Group execute-SQL&gt;"><path d="M686.26 785.62c1.25-.45 1.35-.66 1-2.31a3.56 3.56 0 00-4-2.78c-1.16.24-1.83 1-1.61 2.05.53 1.99 2.59 3.66 4.61 3.04zM676.4 780.33c1.32-.13 1.47-.31 1.57-2a3.55 3.55 0 00-3.2-3.7c-1.18-.06-2 .46-2.07 1.58.01 2.07 1.59 4.2 3.7 4.12zM668.09 776.93c1.31-.2 1.45-.39 1.45-2.07a3.54 3.54 0 00-3.4-3.51c-1.18 0-2 .58-2 1.7.15 2.05 1.86 4.09 3.95 3.88zM659.57 771.08c1.33 0 1.49-.18 1.74-1.84a3.56 3.56 0 00-2.86-4c-1.17-.16-2 .29-2.2 1.4-.18 2.07 1.21 4.36 3.32 4.44zM696.05 791.72c1.31-.21 1.45-.4 1.45-2.08a3.57 3.57 0 00-3.42-3.5c-1.18 0-2 .59-2 1.71.16 2.05 1.92 4.08 3.97 3.87zM704.75 797.08c1.32 0 1.49-.13 1.79-1.78a3.55 3.55 0 00-2.72-4.06c-1.17-.2-2.05.22-2.25 1.32-.24 2.04 1.07 4.35 3.18 4.52zM713.41 801.91c1.32-.09 1.47-.26 1.62-1.94a3.55 3.55 0 00-3.08-3.79c-1.18-.09-2 .4-2.12 1.52-.05 2.05 1.46 4.23 3.58 4.21z" transform="translate(-261.54 -38.74)"/><path fill="#fff" stroke="#000" stroke-miterlimit="10" d="M448.37 765.46h74.25v21.6h-74.25z"/><text font-family="TimesNewRomanPSMT,Times New Roman" font-size="14" transform="translate(451.94 780.34)">execute SQ <tspan x="64.14" y="0" letter-spacing="-.037em">L</tspan></text></g></svg>