<svg id="Layer_1" data-name="Layer 1" xmlns="http://www.w3.org/2000/svg" viewBox="0 0 846 255.08">
  <g id="buoc2">
    <g>
      <path d="M842,137.38a193,193,0,0,0-34.35,50.72q-1.57,3.41-3,6.88a24.13,24.13,0,0,0-2.31,7.86c-.29,4.9,3.06,8.52,6.27,11.76a36.47,36.47,0,0,1,7.78,11.21,44.71,44.71,0,0,1,3.36,13.95c1,12.55-2.46,24.88-5.81,36.84a1.5,1.5,0,0,0,2.9.79c5.34-19.08,11.08-42-1.54-59.62a42.74,42.74,0,0,0-4.44-5.15,28.23,28.23,0,0,1-4.28-5c-2.81-4.67.05-9.84,2-14.29a189.5,189.5,0,0,1,35.56-53.85c1.32-1.4-.8-3.53-2.12-2.12Z" transform="translate(-633 -136.92)"/>
      <rect x="0.5" y="158.58" width="370" height="67" fill="none" stroke="#000" stroke-miterlimit="10"/>
    </g>
    <g>
      <path d="M696.82,326.37a20.61,20.61,0,0,1,3.82-.33,6.72,6.72,0,0,1,4.44,1.17,3.41,3.41,0,0,1,1.34,2.86,3.83,3.83,0,0,1-2.73,3.55v.05a4.15,4.15,0,0,1,3.33,4.06,4.39,4.39,0,0,1-1.36,3.24c-1.13,1-3,1.51-5.6,1.51a25.64,25.64,0,0,1-3.24-.19Zm2.09,6.63h1.9c2.21,0,3.5-1.16,3.5-2.72,0-1.89-1.44-2.64-3.55-2.64a9,9,0,0,0-1.85.15Zm0,7.75a11.34,11.34,0,0,0,1.75.1c2.16,0,4.16-.8,4.16-3.15s-1.9-3.12-4.18-3.12h-1.73Z" transform="translate(-633 -136.92)"/>
      <path d="M719.48,339.17c0,1.2,0,2.25.1,3.16H717.7l-.12-1.89h0a4.4,4.4,0,0,1-3.84,2.16c-1.83,0-4-1-4-5.09v-6.79h2.11v6.43c0,2.21.67,3.7,2.59,3.7a3.07,3.07,0,0,0,2.79-1.92,3.14,3.14,0,0,0,.19-1.08v-7.13h2.11Z" transform="translate(-633 -136.92)"/>
      <path d="M733.5,336.43c0,4.3-3,6.17-5.79,6.17-3.14,0-5.57-2.31-5.57-6,0-3.89,2.55-6.17,5.76-6.17S733.5,332.88,733.5,336.43Zm-9.22.12c0,2.54,1.46,4.46,3.53,4.46s3.53-1.89,3.53-4.51c0-2-1-4.46-3.48-4.46S724.28,334.34,724.28,336.55Z" transform="translate(-633 -136.92)"/>
      <path d="M744.44,341.9a7.77,7.77,0,0,1-3.34.67c-3.5,0-5.78-2.37-5.78-5.92a5.9,5.9,0,0,1,6.24-6.17,7,7,0,0,1,2.93.6l-.48,1.63a4.91,4.91,0,0,0-2.45-.55c-2.66,0-4.1,2-4.1,4.39,0,2.69,1.72,4.34,4,4.34a6.06,6.06,0,0,0,2.59-.57Z" transform="translate(-633 -136.92)"/>
      <path d="M755.91,328.7h0l-2.71,1.46-.41-1.6,3.41-1.83H758v15.6h-2Z" transform="translate(-633 -136.92)"/>
    </g>
  </g>
  <g id="buoc1">
    <g>
      <path d="M1021.7,332.54l73.39,2.34c24.07.77,48.17,1.28,72.23,2.34,12,.53,24.38,1.75,35.32,7.16,1.73.86,3.25-1.73,1.52-2.59-9.75-4.82-20.55-6.54-31.31-7.27-11.83-.8-23.73-.91-35.58-1.29l-73.89-2.36-41.68-1.33c-1.93-.07-1.93,2.93,0,3Z" transform="translate(-633 -136.92)"/>
      <rect x="570.5" y="163.58" width="275" height="91" fill="none" stroke="#000" stroke-miterlimit="10"/>
    </g>
    <g>
      <path d="M1259.49,346.37a20.45,20.45,0,0,1,3.82-.33,6.72,6.72,0,0,1,4.44,1.17,3.41,3.41,0,0,1,1.34,2.86,3.83,3.83,0,0,1-2.73,3.55v.05a4.16,4.16,0,0,1,3.33,4.06,4.36,4.36,0,0,1-1.37,3.24c-1.12,1-3,1.51-5.59,1.51a25.64,25.64,0,0,1-3.24-.19Zm2.09,6.63h1.9c2.2,0,3.5-1.16,3.5-2.72,0-1.89-1.44-2.64-3.55-2.64a9,9,0,0,0-1.85.15Zm0,7.75a11.34,11.34,0,0,0,1.75.1c2.16,0,4.15-.8,4.15-3.15s-1.89-3.12-4.17-3.12h-1.73Z" transform="translate(-633 -136.92)"/>
      <path d="M1282.15,359.17c0,1.2,0,2.25.09,3.16h-1.87l-.12-1.89h0a4.37,4.37,0,0,1-3.84,2.16c-1.82,0-4-1-4-5.09v-6.79h2.12v6.43c0,2.21.67,3.7,2.59,3.7a3,3,0,0,0,2.78-1.92,3.14,3.14,0,0,0,.2-1.08v-7.13h2.11Z" transform="translate(-633 -136.92)"/>
      <path d="M1296.16,356.43c0,4.3-3,6.17-5.78,6.17-3.15,0-5.57-2.31-5.57-6,0-3.89,2.54-6.17,5.76-6.17S1296.16,352.88,1296.16,356.43Zm-9.21.12c0,2.54,1.46,4.46,3.52,4.46s3.53-1.89,3.53-4.51c0-2-1-4.46-3.48-4.46S1287,354.34,1287,356.55Z" transform="translate(-633 -136.92)"/>
      <path d="M1307.11,361.9a7.81,7.81,0,0,1-3.34.67c-3.5,0-5.78-2.37-5.78-5.92a5.9,5.9,0,0,1,6.24-6.17,7.08,7.08,0,0,1,2.93.6l-.49,1.63a4.84,4.84,0,0,0-2.44-.55c-2.67,0-4.11,2-4.11,4.39,0,2.69,1.73,4.34,4,4.34a6.1,6.1,0,0,0,2.59-.57Z" transform="translate(-633 -136.92)"/>
      <path d="M1314.5,359.91a7.09,7.09,0,0,0,3.45,1c2.72,0,3.56-1.72,3.53-3,0-2.18-2-3.12-4-3.12h-1.18v-1.59h1.18c1.54,0,3.48-.79,3.48-2.64,0-1.24-.79-2.35-2.74-2.35a5.78,5.78,0,0,0-3.12,1l-.55-1.53a7.43,7.43,0,0,1,4.08-1.2c3.07,0,4.47,1.82,4.47,3.72a3.87,3.87,0,0,1-2.88,3.67v.05a4.06,4.06,0,0,1,3.48,4c0,2.49-2,4.68-5.69,4.68a7.9,7.9,0,0,1-4.06-1.06Z" transform="translate(-633 -136.92)"/>
    </g>
  </g>
</svg>
